<?xml version="1.0" encoding="UTF-8" standalone="no"?>
<!DOCTYPE svg PUBLIC "-//W3C//DTD SVG 1.1//EN"
 "http://www.w3.org/Graphics/SVG/1.1/DTD/svg11.dtd">
<!-- Generated by graphviz version 2.43.0 (0)
 -->
<!-- Title: mux16x1 Pages: 1 -->
<svg width="915pt" height="474pt"
 viewBox="0.00 0.00 914.66 473.76" xmlns="http://www.w3.org/2000/svg" xmlns:xlink="http://www.w3.org/1999/xlink">
<g id="graph0" class="graph" transform="scale(1 1) rotate(0) translate(4 469.76)">
<title>mux16x1</title>
<polygon fill="white" stroke="transparent" points="-4,4 -4,-469.76 910.66,-469.76 910.66,4 -4,4"/>
<text text-anchor="middle" x="453.33" y="-7.8" font-family="Times,serif" font-size="14.00">mux16x1</text>
<!-- n1 -->
<g id="node1" class="node">
<title>n1</title>
<polygon fill="none" stroke="black" points="59.36,-329.81 59.36,-344.72 43.54,-355.26 21.18,-355.26 5.36,-344.72 5.36,-329.81 21.18,-319.26 43.54,-319.26 59.36,-329.81"/>
<text text-anchor="middle" x="32.36" y="-333.56" font-family="Times,serif" font-size="14.00">IN</text>
</g>
<!-- x0 -->
<g id="node6" class="node">
<title>x0</title>
<path fill="none" stroke="black" d="M121.72,-264.26C121.72,-264.26 172.72,-264.26 172.72,-264.26 178.72,-264.26 184.72,-270.26 184.72,-276.26 184.72,-276.26 184.72,-288.26 184.72,-288.26 184.72,-294.26 178.72,-300.26 172.72,-300.26 172.72,-300.26 121.72,-300.26 121.72,-300.26 115.72,-300.26 109.72,-294.26 109.72,-288.26 109.72,-288.26 109.72,-276.26 109.72,-276.26 109.72,-270.26 115.72,-264.26 121.72,-264.26"/>
<text text-anchor="middle" x="147.22" y="-278.56" font-family="Times,serif" font-size="14.00">3:0 &#45; 3:0</text>
</g>
<!-- n1&#45;&gt;x0 -->
<g id="edge14" class="edge">
<title>n1:e&#45;&gt;x0:w</title>
<path fill="none" stroke="black" stroke-width="3" d="M60.36,-337.26C88.84,-337.26 79.2,-294.78 98.45,-284.49"/>
<polygon fill="black" stroke="black" stroke-width="3" points="99.25,-287.9 108.22,-282.26 97.69,-281.07 99.25,-287.9"/>
</g>
<!-- x3 -->
<g id="node10" class="node">
<title>x3</title>
<path fill="none" stroke="black" d="M121.72,-154.26C121.72,-154.26 172.72,-154.26 172.72,-154.26 178.72,-154.26 184.72,-160.26 184.72,-166.26 184.72,-166.26 184.72,-178.26 184.72,-178.26 184.72,-184.26 178.72,-190.26 172.72,-190.26 172.72,-190.26 121.72,-190.26 121.72,-190.26 115.72,-190.26 109.72,-184.26 109.72,-178.26 109.72,-178.26 109.72,-166.26 109.72,-166.26 109.72,-160.26 115.72,-154.26 121.72,-154.26"/>
<text text-anchor="middle" x="147.22" y="-168.56" font-family="Times,serif" font-size="14.00">7:4 &#45; 3:0</text>
</g>
<!-- n1&#45;&gt;x3 -->
<g id="edge15" class="edge">
<title>n1:e&#45;&gt;x3:w</title>
<path fill="none" stroke="black" stroke-width="3" d="M60.36,-337.26C132.84,-337.26 42.05,-188.6 97.94,-173.5"/>
<polygon fill="black" stroke="black" stroke-width="3" points="98.71,-176.93 108.22,-172.26 97.88,-169.98 98.71,-176.93"/>
</g>
<!-- x6 -->
<g id="node14" class="node">
<title>x6</title>
<path fill="none" stroke="black" d="M117.22,-374.26C117.22,-374.26 177.22,-374.26 177.22,-374.26 183.22,-374.26 189.22,-380.26 189.22,-386.26 189.22,-386.26 189.22,-398.26 189.22,-398.26 189.22,-404.26 183.22,-410.26 177.22,-410.26 177.22,-410.26 117.22,-410.26 117.22,-410.26 111.22,-410.26 105.22,-404.26 105.22,-398.26 105.22,-398.26 105.22,-386.26 105.22,-386.26 105.22,-380.26 111.22,-374.26 117.22,-374.26"/>
<text text-anchor="middle" x="147.22" y="-388.56" font-family="Times,serif" font-size="14.00">11:8 &#45; 3:0</text>
</g>
<!-- n1&#45;&gt;x6 -->
<g id="edge16" class="edge">
<title>n1:e&#45;&gt;x6:w</title>
<path fill="none" stroke="black" stroke-width="3" d="M60.36,-337.26C87.47,-337.26 77.03,-378.62 94.17,-389.61"/>
<polygon fill="black" stroke="black" stroke-width="3" points="93.66,-393.1 104.22,-392.26 95.45,-386.33 93.66,-393.1"/>
</g>
<!-- x9 -->
<g id="node18" class="node">
<title>x9</title>
<path fill="none" stroke="black" d="M112.72,-429.26C112.72,-429.26 181.72,-429.26 181.72,-429.26 187.72,-429.26 193.72,-435.26 193.72,-441.26 193.72,-441.26 193.72,-453.26 193.72,-453.26 193.72,-459.26 187.72,-465.26 181.72,-465.26 181.72,-465.26 112.72,-465.26 112.72,-465.26 106.72,-465.26 100.72,-459.26 100.72,-453.26 100.72,-453.26 100.72,-441.26 100.72,-441.26 100.72,-435.26 106.72,-429.26 112.72,-429.26"/>
<text text-anchor="middle" x="147.22" y="-443.56" font-family="Times,serif" font-size="14.00">15:12 &#45; 3:0</text>
</g>
<!-- n1&#45;&gt;x9 -->
<g id="edge17" class="edge">
<title>n1:e&#45;&gt;x9:w</title>
<path fill="none" stroke="black" stroke-width="3" d="M60.36,-337.26C108.37,-337.26 57.91,-430.75 90.53,-445.35"/>
<polygon fill="black" stroke="black" stroke-width="3" points="90.25,-448.86 100.72,-447.26 91.54,-441.98 90.25,-448.86"/>
</g>
<!-- n2 -->
<g id="node2" class="node">
<title>n2</title>
<polygon fill="none" stroke="black" points="906.63,-101.81 906.63,-116.72 886.46,-127.26 857.93,-127.26 837.75,-116.72 837.75,-101.81 857.93,-91.26 886.46,-91.26 906.63,-101.81"/>
<text text-anchor="middle" x="872.19" y="-105.56" font-family="Times,serif" font-size="14.00">OUT</text>
</g>
<!-- n3 -->
<g id="node3" class="node">
<title>n3</title>
<polygon fill="none" stroke="black" points="64.58,-109.81 64.58,-124.72 45.71,-135.26 19.01,-135.26 0.14,-124.72 0.14,-109.81 19.01,-99.26 45.71,-99.26 64.58,-109.81"/>
<text text-anchor="middle" x="32.36" y="-113.56" font-family="Times,serif" font-size="14.00">SEL</text>
</g>
<!-- x2 -->
<g id="node8" class="node">
<title>x2</title>
<path fill="none" stroke="black" d="M121.72,-99.26C121.72,-99.26 172.72,-99.26 172.72,-99.26 178.72,-99.26 184.72,-105.26 184.72,-111.26 184.72,-111.26 184.72,-123.26 184.72,-123.26 184.72,-129.26 178.72,-135.26 172.72,-135.26 172.72,-135.26 121.72,-135.26 121.72,-135.26 115.72,-135.26 109.72,-129.26 109.72,-123.26 109.72,-123.26 109.72,-111.26 109.72,-111.26 109.72,-105.26 115.72,-99.26 121.72,-99.26"/>
<text text-anchor="middle" x="147.22" y="-113.56" font-family="Times,serif" font-size="14.00">1:0 &#45; 1:0</text>
</g>
<!-- n3&#45;&gt;x2 -->
<g id="edge21" class="edge">
<title>n3:e&#45;&gt;x2:w</title>
<path fill="none" stroke="black" stroke-width="3" d="M64.72,-117.26C80.13,-117.26 86.33,-117.26 97.99,-117.26"/>
<polygon fill="black" stroke="black" stroke-width="3" points="98.22,-120.76 108.22,-117.26 98.22,-113.76 98.22,-120.76"/>
</g>
<!-- x5 -->
<g id="node12" class="node">
<title>x5</title>
<path fill="none" stroke="black" d="M121.72,-44.26C121.72,-44.26 172.72,-44.26 172.72,-44.26 178.72,-44.26 184.72,-50.26 184.72,-56.26 184.72,-56.26 184.72,-68.26 184.72,-68.26 184.72,-74.26 178.72,-80.26 172.72,-80.26 172.72,-80.26 121.72,-80.26 121.72,-80.26 115.72,-80.26 109.72,-74.26 109.72,-68.26 109.72,-68.26 109.72,-56.26 109.72,-56.26 109.72,-50.26 115.72,-44.26 121.72,-44.26"/>
<text text-anchor="middle" x="147.22" y="-58.56" font-family="Times,serif" font-size="14.00">1:0 &#45; 1:0</text>
</g>
<!-- n3&#45;&gt;x5 -->
<g id="edge22" class="edge">
<title>n3:e&#45;&gt;x5:w</title>
<path fill="none" stroke="black" stroke-width="3" d="M64.72,-117.26C91.75,-117.26 81.18,-75.9 98.22,-64.92"/>
<polygon fill="black" stroke="black" stroke-width="3" points="99.45,-68.21 108.22,-62.26 97.66,-61.44 99.45,-68.21"/>
</g>
<!-- x8 -->
<g id="node16" class="node">
<title>x8</title>
<path fill="none" stroke="black" d="M121.72,-209.26C121.72,-209.26 172.72,-209.26 172.72,-209.26 178.72,-209.26 184.72,-215.26 184.72,-221.26 184.72,-221.26 184.72,-233.26 184.72,-233.26 184.72,-239.26 178.72,-245.26 172.72,-245.26 172.72,-245.26 121.72,-245.26 121.72,-245.26 115.72,-245.26 109.72,-239.26 109.72,-233.26 109.72,-233.26 109.72,-221.26 109.72,-221.26 109.72,-215.26 115.72,-209.26 121.72,-209.26"/>
<text text-anchor="middle" x="147.22" y="-223.56" font-family="Times,serif" font-size="14.00">1:0 &#45; 1:0</text>
</g>
<!-- n3&#45;&gt;x8 -->
<g id="edge23" class="edge">
<title>n3:e&#45;&gt;x8:w</title>
<path fill="none" stroke="black" stroke-width="3" d="M64.72,-117.26C113.39,-117.26 64.17,-211.54 98.31,-225.54"/>
<polygon fill="black" stroke="black" stroke-width="3" points="97.77,-228.99 108.22,-227.26 98.97,-222.1 97.77,-228.99"/>
</g>
<!-- x11 -->
<g id="node20" class="node">
<title>x11</title>
<path fill="none" stroke="black" d="M121.72,-319.26C121.72,-319.26 172.72,-319.26 172.72,-319.26 178.72,-319.26 184.72,-325.26 184.72,-331.26 184.72,-331.26 184.72,-343.26 184.72,-343.26 184.72,-349.26 178.72,-355.26 172.72,-355.26 172.72,-355.26 121.72,-355.26 121.72,-355.26 115.72,-355.26 109.72,-349.26 109.72,-343.26 109.72,-343.26 109.72,-331.26 109.72,-331.26 109.72,-325.26 115.72,-319.26 121.72,-319.26"/>
<text text-anchor="middle" x="147.22" y="-333.56" font-family="Times,serif" font-size="14.00">1:0 &#45; 1:0</text>
</g>
<!-- n3&#45;&gt;x11 -->
<g id="edge19" class="edge">
<title>n3:e&#45;&gt;x11:w</title>
<path fill="none" stroke="black" stroke-width="3" d="M64.72,-117.26C160.69,-117.26 19.76,-321.24 98.15,-336.38"/>
<polygon fill="black" stroke="black" stroke-width="3" points="97.95,-339.87 108.22,-337.26 98.57,-332.9 97.95,-339.87"/>
</g>
<!-- x12 -->
<g id="node22" class="node">
<title>x12</title>
<path fill="none" stroke="black" d="M545.72,-64.26C545.72,-64.26 596.72,-64.26 596.72,-64.26 602.72,-64.26 608.72,-70.26 608.72,-76.26 608.72,-76.26 608.72,-88.26 608.72,-88.26 608.72,-94.26 602.72,-100.26 596.72,-100.26 596.72,-100.26 545.72,-100.26 545.72,-100.26 539.72,-100.26 533.72,-94.26 533.72,-88.26 533.72,-88.26 533.72,-76.26 533.72,-76.26 533.72,-70.26 539.72,-64.26 545.72,-64.26"/>
<text text-anchor="middle" x="571.22" y="-78.56" font-family="Times,serif" font-size="14.00">3:2 &#45; 1:0</text>
</g>
<!-- n3&#45;&gt;x12 -->
<g id="edge20" class="edge">
<title>n3:e&#45;&gt;x12:w</title>
<path fill="none" stroke="black" stroke-width="3" d="M64.72,-117.26C104.93,-117.26 67.1,-56.33 100.72,-34.26 135.28,-11.59 152.49,-31.37 193.72,-34.26 342.54,-44.72 379.47,-80.6 523.61,-82.21"/>
<polygon fill="black" stroke="black" stroke-width="3" points="523.7,-85.71 533.72,-82.26 523.74,-78.71 523.7,-85.71"/>
</g>
<!-- n4 -->
<g id="node4" class="node">
<title>n4</title>
<polygon fill="none" stroke="black" points="571.22,-207.26 544.22,-189.26 571.22,-171.26 598.22,-189.26 571.22,-207.26"/>
<text text-anchor="middle" x="571.22" y="-185.56" font-family="Times,serif" font-size="14.00">t</text>
</g>
<!-- c12 -->
<g id="node21" class="node">
<title>c12</title>
<polygon fill="none" stroke="black" points="644.72,-86.26 644.72,-132.26 801.72,-132.26 801.72,-86.26 644.72,-86.26"/>
<text text-anchor="middle" x="663.22" y="-117.06" font-family="Times,serif" font-size="14.00">in</text>
<polyline fill="none" stroke="black" points="644.72,-109.26 681.72,-109.26 "/>
<text text-anchor="middle" x="663.22" y="-94.06" font-family="Times,serif" font-size="14.00">sel</text>
<polyline fill="none" stroke="black" points="681.72,-86.26 681.72,-132.26 "/>
<text text-anchor="middle" x="721.72" y="-113.06" font-family="Times,serif" font-size="14.00">m5</text>
<text text-anchor="middle" x="721.72" y="-98.06" font-family="Times,serif" font-size="14.00">mux_4x1</text>
<polyline fill="none" stroke="black" points="761.72,-86.26 761.72,-132.26 "/>
<text text-anchor="middle" x="781.72" y="-105.56" font-family="Times,serif" font-size="14.00">out</text>
</g>
<!-- n4&#45;&gt;c12 -->
<g id="edge28" class="edge">
<title>n4:e&#45;&gt;c12:w</title>
<path fill="none" stroke="black" stroke-width="3" d="M599.22,-189.26C631.61,-189.26 613.55,-135.33 634.91,-123.53"/>
<polygon fill="black" stroke="black" stroke-width="3" points="635.76,-126.92 644.72,-121.26 634.19,-120.1 635.76,-126.92"/>
</g>
<!-- c8 -->
<g id="node5" class="node">
<title>c8</title>
<polygon fill="none" stroke="black" points="229.72,-166.26 229.72,-212.26 386.72,-212.26 386.72,-166.26 229.72,-166.26"/>
<text text-anchor="middle" x="248.22" y="-197.06" font-family="Times,serif" font-size="14.00">in</text>
<polyline fill="none" stroke="black" points="229.72,-189.26 266.72,-189.26 "/>
<text text-anchor="middle" x="248.22" y="-174.06" font-family="Times,serif" font-size="14.00">sel</text>
<polyline fill="none" stroke="black" points="266.72,-166.26 266.72,-212.26 "/>
<text text-anchor="middle" x="306.72" y="-193.06" font-family="Times,serif" font-size="14.00">m1</text>
<text text-anchor="middle" x="306.72" y="-178.06" font-family="Times,serif" font-size="14.00">mux_4x1</text>
<polyline fill="none" stroke="black" points="346.72,-166.26 346.72,-212.26 "/>
<text text-anchor="middle" x="366.72" y="-185.56" font-family="Times,serif" font-size="14.00">out</text>
</g>
<!-- x1 -->
<g id="node7" class="node">
<title>x1</title>
<path fill="none" stroke="black" d="M434.72,-171.26C434.72,-171.26 485.72,-171.26 485.72,-171.26 491.72,-171.26 497.72,-177.26 497.72,-183.26 497.72,-183.26 497.72,-195.26 497.72,-195.26 497.72,-201.26 491.72,-207.26 485.72,-207.26 485.72,-207.26 434.72,-207.26 434.72,-207.26 428.72,-207.26 422.72,-201.26 422.72,-195.26 422.72,-195.26 422.72,-183.26 422.72,-183.26 422.72,-177.26 428.72,-171.26 434.72,-171.26"/>
<text text-anchor="middle" x="460.22" y="-185.56" font-family="Times,serif" font-size="14.00">0:0 &#45; 0:0</text>
</g>
<!-- c8&#45;&gt;x1 -->
<g id="edge2" class="edge">
<title>c8:e&#45;&gt;x1:w</title>
<path fill="none" stroke="black" d="M398.94,-189.26C403.02,-189.26 406.46,-189.26 410.54,-189.26"/>
<polygon fill="none" stroke="black" points="398.72,-189.26 392.72,-193.26 386.72,-189.26 392.72,-185.26 398.72,-189.26"/>
<polygon fill="none" stroke="black" points="410.72,-189.26 416.72,-185.26 422.72,-189.26 416.72,-193.26 410.72,-189.26"/>
</g>
<!-- x0&#45;&gt;c8 -->
<g id="edge1" class="edge">
<title>x0:e&#45;&gt;c8:w</title>
<path fill="none" stroke="black" stroke-width="3" d="M197.87,-278.99C216.02,-265.97 199.97,-217.92 217.9,-204.67"/>
<polygon fill="none" stroke="black" stroke-width="3" points="197.77,-279.01 193.08,-284.49 186.22,-282.26 190.91,-276.79 197.77,-279.01"/>
<polygon fill="none" stroke="black" stroke-width="3" points="218.19,-204.59 222.85,-199.08 229.72,-201.26 225.06,-206.77 218.19,-204.59"/>
</g>
<!-- x1&#45;&gt;n4 -->
<g id="edge25" class="edge">
<title>x1:e&#45;&gt;n4:w</title>
<path fill="none" stroke="black" d="M497.72,-189.26C513.99,-189.26 520.45,-189.26 532.88,-189.26"/>
<polygon fill="black" stroke="black" points="533.22,-192.76 543.22,-189.26 533.22,-185.76 533.22,-192.76"/>
</g>
<!-- x2&#45;&gt;c8 -->
<g id="edge3" class="edge">
<title>x2:e&#45;&gt;c8:w</title>
<path fill="none" stroke="black" stroke-width="3" d="M198.03,-121.2C210.73,-132.15 205.22,-162.86 218.17,-173.54"/>
<polygon fill="none" stroke="black" stroke-width="3" points="197.61,-121.06 190.65,-122.96 186.22,-117.26 193.18,-115.37 197.61,-121.06"/>
<polygon fill="none" stroke="black" stroke-width="3" points="218.3,-173.59 225.24,-171.62 229.72,-177.26 222.78,-179.23 218.3,-173.59"/>
</g>
<!-- c9 -->
<g id="node9" class="node">
<title>c9</title>
<polygon fill="none" stroke="black" points="229.72,-101.26 229.72,-147.26 386.72,-147.26 386.72,-101.26 229.72,-101.26"/>
<text text-anchor="middle" x="248.22" y="-132.06" font-family="Times,serif" font-size="14.00">in</text>
<polyline fill="none" stroke="black" points="229.72,-124.26 266.72,-124.26 "/>
<text text-anchor="middle" x="248.22" y="-109.06" font-family="Times,serif" font-size="14.00">sel</text>
<polyline fill="none" stroke="black" points="266.72,-101.26 266.72,-147.26 "/>
<text text-anchor="middle" x="306.72" y="-128.06" font-family="Times,serif" font-size="14.00">m2</text>
<text text-anchor="middle" x="306.72" y="-113.06" font-family="Times,serif" font-size="14.00">mux_4x1</text>
<polyline fill="none" stroke="black" points="346.72,-101.26 346.72,-147.26 "/>
<text text-anchor="middle" x="366.72" y="-120.56" font-family="Times,serif" font-size="14.00">out</text>
</g>
<!-- x4 -->
<g id="node11" class="node">
<title>x4</title>
<path fill="none" stroke="black" d="M434.72,-111.26C434.72,-111.26 485.72,-111.26 485.72,-111.26 491.72,-111.26 497.72,-117.26 497.72,-123.26 497.72,-123.26 497.72,-135.26 497.72,-135.26 497.72,-141.26 491.72,-147.26 485.72,-147.26 485.72,-147.26 434.72,-147.26 434.72,-147.26 428.72,-147.26 422.72,-141.26 422.72,-135.26 422.72,-135.26 422.72,-123.26 422.72,-123.26 422.72,-117.26 428.72,-111.26 434.72,-111.26"/>
<text text-anchor="middle" x="460.22" y="-125.56" font-family="Times,serif" font-size="14.00">0:0 &#45; 1:1</text>
</g>
<!-- c9&#45;&gt;x4 -->
<g id="edge5" class="edge">
<title>c9:e&#45;&gt;x4:w</title>
<path fill="none" stroke="black" d="M398.72,-125.37C402.97,-126.2 406.48,-127.33 410.74,-128.16"/>
<polygon fill="none" stroke="black" points="398.67,-125.37 392.33,-128.8 386.72,-124.26 393.06,-120.83 398.67,-125.37"/>
<polygon fill="none" stroke="black" points="410.77,-128.16 417.11,-124.73 422.72,-129.26 416.38,-132.7 410.77,-128.16"/>
</g>
<!-- x3&#45;&gt;c9 -->
<g id="edge4" class="edge">
<title>x3:e&#45;&gt;c9:w</title>
<path fill="none" stroke="black" stroke-width="3" d="M197.76,-168.68C206.97,-161.78 208.98,-146.72 218.2,-139.83"/>
<polygon fill="none" stroke="black" stroke-width="3" points="197.68,-168.71 193.14,-174.3 186.22,-172.26 190.77,-166.66 197.68,-168.71"/>
<polygon fill="none" stroke="black" stroke-width="3" points="218.26,-139.81 222.81,-134.22 229.72,-136.26 225.17,-141.86 218.26,-139.81"/>
</g>
<!-- x4&#45;&gt;n4 -->
<g id="edge26" class="edge">
<title>x4:e&#45;&gt;n4:w</title>
<path fill="none" stroke="black" d="M497.72,-129.26C527.14,-129.26 514.14,-175.61 533.28,-186.84"/>
<polygon fill="black" stroke="black" points="532.68,-190.29 543.22,-189.26 534.34,-183.49 532.68,-190.29"/>
</g>
<!-- x5&#45;&gt;c9 -->
<g id="edge6" class="edge">
<title>x5:e&#45;&gt;c9:w</title>
<path fill="none" stroke="black" stroke-width="3" d="M197.89,-66.19C208.9,-75.58 207.09,-99.26 218.24,-108.5"/>
<polygon fill="none" stroke="black" stroke-width="3" points="197.6,-66.09 190.63,-67.97 186.22,-62.26 193.18,-60.39 197.6,-66.09"/>
<polygon fill="none" stroke="black" stroke-width="3" points="218.32,-108.52 225.27,-106.59 229.72,-112.26 222.77,-114.19 218.32,-108.52"/>
</g>
<!-- c10 -->
<g id="node13" class="node">
<title>c10</title>
<polygon fill="none" stroke="black" points="229.72,-231.26 229.72,-277.26 386.72,-277.26 386.72,-231.26 229.72,-231.26"/>
<text text-anchor="middle" x="248.22" y="-262.06" font-family="Times,serif" font-size="14.00">in</text>
<polyline fill="none" stroke="black" points="229.72,-254.26 266.72,-254.26 "/>
<text text-anchor="middle" x="248.22" y="-239.06" font-family="Times,serif" font-size="14.00">sel</text>
<polyline fill="none" stroke="black" points="266.72,-231.26 266.72,-277.26 "/>
<text text-anchor="middle" x="306.72" y="-258.06" font-family="Times,serif" font-size="14.00">m3</text>
<text text-anchor="middle" x="306.72" y="-243.06" font-family="Times,serif" font-size="14.00">mux_4x1</text>
<polyline fill="none" stroke="black" points="346.72,-231.26 346.72,-277.26 "/>
<text text-anchor="middle" x="366.72" y="-250.56" font-family="Times,serif" font-size="14.00">out</text>
</g>
<!-- x7 -->
<g id="node15" class="node">
<title>x7</title>
<path fill="none" stroke="black" d="M434.72,-231.26C434.72,-231.26 485.72,-231.26 485.72,-231.26 491.72,-231.26 497.72,-237.26 497.72,-243.26 497.72,-243.26 497.72,-255.26 497.72,-255.26 497.72,-261.26 491.72,-267.26 485.72,-267.26 485.72,-267.26 434.72,-267.26 434.72,-267.26 428.72,-267.26 422.72,-261.26 422.72,-255.26 422.72,-255.26 422.72,-243.26 422.72,-243.26 422.72,-237.26 428.72,-231.26 434.72,-231.26"/>
<text text-anchor="middle" x="460.22" y="-245.56" font-family="Times,serif" font-size="14.00">0:0 &#45; 2:2</text>
</g>
<!-- c10&#45;&gt;x7 -->
<g id="edge8" class="edge">
<title>c10:e&#45;&gt;x7:w</title>
<path fill="none" stroke="black" d="M398.72,-253.15C402.97,-252.33 406.48,-251.2 410.74,-250.37"/>
<polygon fill="none" stroke="black" points="398.67,-253.16 393.06,-257.69 386.72,-254.26 392.33,-249.73 398.67,-253.16"/>
<polygon fill="none" stroke="black" points="410.77,-250.37 416.38,-245.83 422.72,-249.26 417.11,-253.8 410.77,-250.37"/>
</g>
<!-- x6&#45;&gt;c10 -->
<g id="edge7" class="edge">
<title>x6:e&#45;&gt;c10:w</title>
<path fill="none" stroke="black" stroke-width="3" d="M202.06,-389.86C233.91,-374.01 186.07,-284.63 217.83,-268.69"/>
<polygon fill="none" stroke="black" stroke-width="3" points="201.98,-389.88 196.9,-394.99 190.22,-392.26 195.3,-387.15 201.98,-389.88"/>
<polygon fill="none" stroke="black" stroke-width="3" points="217.96,-268.67 223.04,-263.55 229.72,-266.26 224.64,-271.38 217.96,-268.67"/>
</g>
<!-- x7&#45;&gt;n4 -->
<g id="edge27" class="edge">
<title>x7:e&#45;&gt;n4:w</title>
<path fill="none" stroke="black" d="M497.72,-249.26C527.14,-249.26 514.14,-202.92 533.28,-191.69"/>
<polygon fill="black" stroke="black" points="534.34,-195.04 543.22,-189.26 532.68,-188.24 534.34,-195.04"/>
</g>
<!-- x8&#45;&gt;c10 -->
<g id="edge9" class="edge">
<title>x8:e&#45;&gt;c10:w</title>
<path fill="none" stroke="black" stroke-width="3" d="M198.12,-229.35C205.59,-232.22 210.38,-237.34 217.87,-240.2"/>
<polygon fill="none" stroke="black" stroke-width="3" points="198.04,-229.34 191.44,-232.24 186.22,-227.26 192.82,-224.36 198.04,-229.34"/>
<polygon fill="none" stroke="black" stroke-width="3" points="217.9,-240.2 224.5,-237.29 229.72,-242.26 223.12,-245.17 217.9,-240.2"/>
</g>
<!-- c11 -->
<g id="node17" class="node">
<title>c11</title>
<polygon fill="none" stroke="black" points="229.72,-326.26 229.72,-372.26 386.72,-372.26 386.72,-326.26 229.72,-326.26"/>
<text text-anchor="middle" x="248.22" y="-357.06" font-family="Times,serif" font-size="14.00">in</text>
<polyline fill="none" stroke="black" points="229.72,-349.26 266.72,-349.26 "/>
<text text-anchor="middle" x="248.22" y="-334.06" font-family="Times,serif" font-size="14.00">sel</text>
<polyline fill="none" stroke="black" points="266.72,-326.26 266.72,-372.26 "/>
<text text-anchor="middle" x="306.72" y="-353.06" font-family="Times,serif" font-size="14.00">m4</text>
<text text-anchor="middle" x="306.72" y="-338.06" font-family="Times,serif" font-size="14.00">mux_4x1</text>
<polyline fill="none" stroke="black" points="346.72,-326.26 346.72,-372.26 "/>
<text text-anchor="middle" x="366.72" y="-345.56" font-family="Times,serif" font-size="14.00">out</text>
</g>
<!-- x10 -->
<g id="node19" class="node">
<title>x10</title>
<path fill="none" stroke="black" d="M434.72,-316.26C434.72,-316.26 485.72,-316.26 485.72,-316.26 491.72,-316.26 497.72,-322.26 497.72,-328.26 497.72,-328.26 497.72,-340.26 497.72,-340.26 497.72,-346.26 491.72,-352.26 485.72,-352.26 485.72,-352.26 434.72,-352.26 434.72,-352.26 428.72,-352.26 422.72,-346.26 422.72,-340.26 422.72,-340.26 422.72,-328.26 422.72,-328.26 422.72,-322.26 428.72,-316.26 434.72,-316.26"/>
<text text-anchor="middle" x="460.22" y="-330.56" font-family="Times,serif" font-size="14.00">0:0 &#45; 3:3</text>
</g>
<!-- c11&#45;&gt;x10 -->
<g id="edge11" class="edge">
<title>c11:e&#45;&gt;x10:w</title>
<path fill="none" stroke="black" d="M398.51,-346.23C403.06,-343.63 406.39,-339.9 410.94,-337.3"/>
<polygon fill="none" stroke="black" points="398.34,-346.27 393.53,-351.64 386.72,-349.26 391.53,-343.89 398.34,-346.27"/>
<polygon fill="none" stroke="black" points="411.1,-337.25 415.91,-331.88 422.72,-334.26 417.91,-339.63 411.1,-337.25"/>
</g>
<!-- x9&#45;&gt;c11 -->
<g id="edge10" class="edge">
<title>x9:e&#45;&gt;c11:w</title>
<path fill="none" stroke="black" stroke-width="3" d="M205.47,-443.57C222.1,-429.42 201.28,-378.81 218.11,-364.85"/>
<polygon fill="none" stroke="black" stroke-width="3" points="205.17,-443.66 200.65,-449.28 193.72,-447.26 198.24,-441.65 205.17,-443.66"/>
<polygon fill="none" stroke="black" stroke-width="3" points="218.26,-364.8 222.81,-359.21 229.72,-361.26 225.17,-366.86 218.26,-364.8"/>
</g>
<!-- x10&#45;&gt;n4 -->
<g id="edge24" class="edge">
<title>x10:e&#45;&gt;n4:w</title>
<path fill="none" stroke="black" d="M497.72,-334.26C561.44,-334.26 485.32,-205.22 533.2,-190.61"/>
<polygon fill="black" stroke="black" points="533.77,-194.06 543.22,-189.26 532.85,-187.12 533.77,-194.06"/>
</g>
<!-- x11&#45;&gt;c11 -->
<g id="edge12" class="edge">
<title>x11:e&#45;&gt;c11:w</title>
<path fill="none" stroke="black" stroke-width="3" d="M198.46,-337.26C205.46,-337.26 210.62,-337.26 217.65,-337.26"/>
<polygon fill="none" stroke="black" stroke-width="3" points="198.22,-337.26 192.22,-341.26 186.22,-337.26 192.22,-333.26 198.22,-337.26"/>
<polygon fill="none" stroke="black" stroke-width="3" points="217.72,-337.26 223.72,-333.26 229.72,-337.26 223.72,-341.26 217.72,-337.26"/>
</g>
<!-- c12&#45;&gt;n2 -->
<g id="edge18" class="edge">
<title>c12:e&#45;&gt;n2:w</title>
<path fill="none" stroke="black" d="M801.72,-109.26C813.72,-109.26 818.97,-109.26 827.6,-109.26"/>
<polygon fill="black" stroke="black" points="827.72,-112.76 837.72,-109.26 827.72,-105.76 827.72,-112.76"/>
</g>
<!-- x12&#45;&gt;c12 -->
<g id="edge13" class="edge">
<title>x12:e&#45;&gt;c12:w</title>
<path fill="none" stroke="black" stroke-width="3" d="M620.51,-85.3C625.06,-87.9 628.39,-91.63 632.94,-94.23"/>
<polygon fill="none" stroke="black" stroke-width="3" points="620.34,-85.26 613.53,-87.63 608.72,-82.26 615.53,-79.89 620.34,-85.26"/>
<polygon fill="none" stroke="black" stroke-width="3" points="633.1,-94.28 639.91,-91.9 644.72,-97.26 637.91,-99.64 633.1,-94.28"/>
</g>
</g>
</svg>
