<?xml version="1.0" encoding="UTF-8" standalone="no"?>
<!DOCTYPE svg PUBLIC "-//W3C//DTD SVG 1.1//EN"
 "http://www.w3.org/Graphics/SVG/1.1/DTD/svg11.dtd">
<!-- Generated by graphviz version 2.43.0 (0)
 -->
<!-- Title: mux8x1 Pages: 1 -->
<svg width="466pt" height="1223pt"
 viewBox="0.00 0.00 465.84 1222.50" xmlns="http://www.w3.org/2000/svg" xmlns:xlink="http://www.w3.org/1999/xlink">
<g id="graph0" class="graph" transform="scale(1 1) rotate(0) translate(4 1218.5)">
<title>mux8x1</title>
<polygon fill="white" stroke="transparent" points="-4,4 -4,-1218.5 461.84,-1218.5 461.84,4 -4,4"/>
<text text-anchor="middle" x="228.92" y="-7.8" font-family="Times,serif" font-size="14.00">mux8x1</text>
<!-- n7 -->
<g id="node1" class="node">
<title>n7</title>
<polygon fill="none" stroke="black" points="70.62,-940.54 70.62,-955.46 54.8,-966 32.43,-966 16.62,-955.46 16.62,-940.54 32.43,-930 54.8,-930 70.62,-940.54"/>
<text text-anchor="middle" x="43.62" y="-944.3" font-family="Times,serif" font-size="14.00">IN</text>
</g>
<!-- x0 -->
<g id="node5" class="node">
<title>x0</title>
<path fill="none" stroke="black" d="M179.54,-1178C179.54,-1178 230.54,-1178 230.54,-1178 236.54,-1178 242.54,-1184 242.54,-1190 242.54,-1190 242.54,-1202 242.54,-1202 242.54,-1208 236.54,-1214 230.54,-1214 230.54,-1214 179.54,-1214 179.54,-1214 173.54,-1214 167.54,-1208 167.54,-1202 167.54,-1202 167.54,-1190 167.54,-1190 167.54,-1184 173.54,-1178 179.54,-1178"/>
<text text-anchor="middle" x="205.04" y="-1192.3" font-family="Times,serif" font-size="14.00">3:3 &#45; 0:0</text>
</g>
<!-- n7&#45;&gt;x0 -->
<g id="edge28" class="edge">
<title>n7:e&#45;&gt;x0:w</title>
<path fill="none" stroke="black" d="M71.62,-948C185.99,-948 56.42,-1181.21 156.03,-1195.33"/>
<polygon fill="black" stroke="black" points="155.83,-1198.83 166.04,-1196 156.29,-1191.84 155.83,-1198.83"/>
</g>
<!-- x1 -->
<g id="node6" class="node">
<title>x1</title>
<path fill="none" stroke="black" d="M179.54,-1123C179.54,-1123 230.54,-1123 230.54,-1123 236.54,-1123 242.54,-1129 242.54,-1135 242.54,-1135 242.54,-1147 242.54,-1147 242.54,-1153 236.54,-1159 230.54,-1159 230.54,-1159 179.54,-1159 179.54,-1159 173.54,-1159 167.54,-1153 167.54,-1147 167.54,-1147 167.54,-1135 167.54,-1135 167.54,-1129 173.54,-1123 179.54,-1123"/>
<text text-anchor="middle" x="205.04" y="-1137.3" font-family="Times,serif" font-size="14.00">7:7 &#45; 0:0</text>
</g>
<!-- n7&#45;&gt;x1 -->
<g id="edge31" class="edge">
<title>n7:e&#45;&gt;x1:w</title>
<path fill="none" stroke="black" d="M71.62,-948C148.88,-948 76.18,-1052.72 123.23,-1114 134.58,-1128.77 141.06,-1137.6 155.73,-1140.19"/>
<polygon fill="black" stroke="black" points="155.79,-1143.71 166.04,-1141 156.34,-1136.73 155.79,-1143.71"/>
</g>
<!-- x3 -->
<g id="node9" class="node">
<title>x3</title>
<path fill="none" stroke="black" d="M179.54,-683C179.54,-683 230.54,-683 230.54,-683 236.54,-683 242.54,-689 242.54,-695 242.54,-695 242.54,-707 242.54,-707 242.54,-713 236.54,-719 230.54,-719 230.54,-719 179.54,-719 179.54,-719 173.54,-719 167.54,-713 167.54,-707 167.54,-707 167.54,-695 167.54,-695 167.54,-689 173.54,-683 179.54,-683"/>
<text text-anchor="middle" x="205.04" y="-697.3" font-family="Times,serif" font-size="14.00">2:2 &#45; 0:0</text>
</g>
<!-- n7&#45;&gt;x3 -->
<g id="edge32" class="edge">
<title>n7:e&#45;&gt;x3:w</title>
<path fill="none" stroke="black" d="M71.62,-948C185.58,-948 56.79,-715.73 156.06,-701.67"/>
<polygon fill="black" stroke="black" points="156.29,-705.16 166.04,-701 155.83,-698.17 156.29,-705.16"/>
</g>
<!-- x4 -->
<g id="node10" class="node">
<title>x4</title>
<path fill="none" stroke="black" d="M179.54,-463C179.54,-463 230.54,-463 230.54,-463 236.54,-463 242.54,-469 242.54,-475 242.54,-475 242.54,-487 242.54,-487 242.54,-493 236.54,-499 230.54,-499 230.54,-499 179.54,-499 179.54,-499 173.54,-499 167.54,-493 167.54,-487 167.54,-487 167.54,-475 167.54,-475 167.54,-469 173.54,-463 179.54,-463"/>
<text text-anchor="middle" x="205.04" y="-477.3" font-family="Times,serif" font-size="14.00">6:6 &#45; 0:0</text>
</g>
<!-- n7&#45;&gt;x4 -->
<g id="edge33" class="edge">
<title>n7:e&#45;&gt;x4:w</title>
<path fill="none" stroke="black" d="M71.62,-948C169.84,-948 71.53,-592.52 123.23,-509 133.24,-492.84 140.54,-484.13 155.95,-481.71"/>
<polygon fill="black" stroke="black" points="156.31,-485.19 166.04,-481 155.82,-478.21 156.31,-485.19"/>
</g>
<!-- x7 -->
<g id="node15" class="node">
<title>x7</title>
<path fill="none" stroke="black" d="M179.54,-848C179.54,-848 230.54,-848 230.54,-848 236.54,-848 242.54,-854 242.54,-860 242.54,-860 242.54,-872 242.54,-872 242.54,-878 236.54,-884 230.54,-884 230.54,-884 179.54,-884 179.54,-884 173.54,-884 167.54,-878 167.54,-872 167.54,-872 167.54,-860 167.54,-860 167.54,-854 173.54,-848 179.54,-848"/>
<text text-anchor="middle" x="205.04" y="-862.3" font-family="Times,serif" font-size="14.00">1:1 &#45; 0:0</text>
</g>
<!-- n7&#45;&gt;x7 -->
<g id="edge34" class="edge">
<title>n7:e&#45;&gt;x7:w</title>
<path fill="none" stroke="black" d="M71.62,-948C105.14,-948 97.38,-914.34 123.23,-893 137.6,-881.14 142.1,-870.41 156,-867.07"/>
<polygon fill="black" stroke="black" points="156.46,-870.54 166.04,-866 155.72,-863.58 156.46,-870.54"/>
</g>
<!-- x8 -->
<g id="node16" class="node">
<title>x8</title>
<path fill="none" stroke="black" d="M179.54,-738C179.54,-738 230.54,-738 230.54,-738 236.54,-738 242.54,-744 242.54,-750 242.54,-750 242.54,-762 242.54,-762 242.54,-768 236.54,-774 230.54,-774 230.54,-774 179.54,-774 179.54,-774 173.54,-774 167.54,-768 167.54,-762 167.54,-762 167.54,-750 167.54,-750 167.54,-744 173.54,-738 179.54,-738"/>
<text text-anchor="middle" x="205.04" y="-752.3" font-family="Times,serif" font-size="14.00">5:5 &#45; 0:0</text>
</g>
<!-- n7&#45;&gt;x8 -->
<g id="edge35" class="edge">
<title>n7:e&#45;&gt;x8:w</title>
<path fill="none" stroke="black" d="M71.62,-948C148.03,-948 77.1,-844.91 123.23,-784 134.71,-768.85 141.02,-759.46 156.07,-756.79"/>
<polygon fill="black" stroke="black" points="156.35,-760.28 166.04,-756 155.79,-753.3 156.35,-760.28"/>
</g>
<!-- x10 -->
<g id="node19" class="node">
<title>x10</title>
<path fill="none" stroke="black" d="M179.54,-1068C179.54,-1068 230.54,-1068 230.54,-1068 236.54,-1068 242.54,-1074 242.54,-1080 242.54,-1080 242.54,-1092 242.54,-1092 242.54,-1098 236.54,-1104 230.54,-1104 230.54,-1104 179.54,-1104 179.54,-1104 173.54,-1104 167.54,-1098 167.54,-1092 167.54,-1092 167.54,-1080 167.54,-1080 167.54,-1074 173.54,-1068 179.54,-1068"/>
<text text-anchor="middle" x="205.04" y="-1082.3" font-family="Times,serif" font-size="14.00">0:0 &#45; 0:0</text>
</g>
<!-- n7&#45;&gt;x10 -->
<g id="edge29" class="edge">
<title>n7:e&#45;&gt;x10:w</title>
<path fill="none" stroke="black" d="M71.62,-948C126.02,-948 87.29,-1018.16 123.23,-1059 135.54,-1072.98 141.39,-1082.32 155.82,-1085.12"/>
<polygon fill="black" stroke="black" points="155.77,-1088.63 166.04,-1086 156.37,-1081.66 155.77,-1088.63"/>
</g>
<!-- x11 -->
<g id="node20" class="node">
<title>x11</title>
<path fill="none" stroke="black" d="M179.54,-1013C179.54,-1013 230.54,-1013 230.54,-1013 236.54,-1013 242.54,-1019 242.54,-1025 242.54,-1025 242.54,-1037 242.54,-1037 242.54,-1043 236.54,-1049 230.54,-1049 230.54,-1049 179.54,-1049 179.54,-1049 173.54,-1049 167.54,-1043 167.54,-1037 167.54,-1037 167.54,-1025 167.54,-1025 167.54,-1019 173.54,-1013 179.54,-1013"/>
<text text-anchor="middle" x="205.04" y="-1027.3" font-family="Times,serif" font-size="14.00">4:4 &#45; 0:0</text>
</g>
<!-- n7&#45;&gt;x11 -->
<g id="edge30" class="edge">
<title>n7:e&#45;&gt;x11:w</title>
<path fill="none" stroke="black" d="M71.62,-948C105.47,-948 97.22,-982.34 123.23,-1004 137.55,-1015.92 142.08,-1026.61 155.99,-1029.94"/>
<polygon fill="black" stroke="black" points="155.73,-1033.43 166.04,-1031 156.46,-1026.47 155.73,-1033.43"/>
</g>
<!-- n8 -->
<g id="node2" class="node">
<title>n8</title>
<polygon fill="none" stroke="black" points="239.48,-33.54 239.48,-48.46 219.3,-59 190.77,-59 170.6,-48.46 170.6,-33.54 190.77,-23 219.3,-23 239.48,-33.54"/>
<text text-anchor="middle" x="205.04" y="-37.3" font-family="Times,serif" font-size="14.00">OUT</text>
</g>
<!-- c20 -->
<g id="node24" class="node">
<title>c20</title>
<polygon fill="none" stroke="black" points="322.84,-65 322.84,-157 457.84,-157 457.84,-65 322.84,-65"/>
<text text-anchor="middle" x="336.34" y="-141.8" font-family="Times,serif" font-size="14.00">A</text>
<polyline fill="none" stroke="black" points="322.84,-134 349.84,-134 "/>
<text text-anchor="middle" x="336.34" y="-118.8" font-family="Times,serif" font-size="14.00">B</text>
<polyline fill="none" stroke="black" points="322.84,-111 349.84,-111 "/>
<text text-anchor="middle" x="336.34" y="-95.8" font-family="Times,serif" font-size="14.00">S</text>
<polyline fill="none" stroke="black" points="322.84,-88 349.84,-88 "/>
<text text-anchor="middle" x="336.34" y="-72.8" font-family="Times,serif" font-size="14.00">Z</text>
<polyline fill="none" stroke="black" points="349.84,-65 349.84,-157 "/>
<text text-anchor="middle" x="393.34" y="-114.8" font-family="Times,serif" font-size="14.00">$135</text>
<text text-anchor="middle" x="393.34" y="-99.8" font-family="Times,serif" font-size="14.00">MUX2_X1</text>
<polyline fill="none" stroke="black" points="436.84,-65 436.84,-157 "/>
<text text-anchor="middle" x="447.34" y="-107.3" font-family="Times,serif" font-size="14.00"> </text>
</g>
<!-- n8&#45;&gt;c20 -->
<g id="edge36" class="edge">
<title>n8:e&#45;&gt;c20:w</title>
<path fill="none" stroke="black" d="M241.04,-41C276.88,-41 282.46,-69.75 312.63,-75.13"/>
<polygon fill="black" stroke="black" points="312.58,-78.64 322.84,-76 313.17,-71.67 312.58,-78.64"/>
</g>
<!-- n9 -->
<g id="node3" class="node">
<title>n9</title>
<polygon fill="none" stroke="black" points="87.35,-418.54 87.35,-433.46 61.73,-444 25.5,-444 -0.12,-433.46 -0.12,-418.54 25.5,-408 61.73,-408 87.35,-418.54"/>
<text text-anchor="middle" x="43.62" y="-422.3" font-family="Times,serif" font-size="14.00">SHIFT</text>
</g>
<!-- x2 -->
<g id="node7" class="node">
<title>x2</title>
<path fill="none" stroke="black" d="M179.54,-958C179.54,-958 230.54,-958 230.54,-958 236.54,-958 242.54,-964 242.54,-970 242.54,-970 242.54,-982 242.54,-982 242.54,-988 236.54,-994 230.54,-994 230.54,-994 179.54,-994 179.54,-994 173.54,-994 167.54,-988 167.54,-982 167.54,-982 167.54,-970 167.54,-970 167.54,-964 173.54,-958 179.54,-958"/>
<text text-anchor="middle" x="205.04" y="-972.3" font-family="Times,serif" font-size="14.00">2:2 &#45; 0:0</text>
</g>
<!-- n9&#45;&gt;x2 -->
<g id="edge40" class="edge">
<title>n9:e&#45;&gt;x2:w</title>
<path fill="none" stroke="black" d="M87.23,-426C145.48,-426 93.37,-898.99 123.23,-949 132.87,-965.14 140.59,-973.16 156,-975.36"/>
<polygon fill="black" stroke="black" points="155.84,-978.86 166.04,-976 156.28,-971.87 155.84,-978.86"/>
</g>
<!-- x5 -->
<g id="node11" class="node">
<title>x5</title>
<path fill="none" stroke="black" d="M179.54,-408C179.54,-408 230.54,-408 230.54,-408 236.54,-408 242.54,-414 242.54,-420 242.54,-420 242.54,-432 242.54,-432 242.54,-438 236.54,-444 230.54,-444 230.54,-444 179.54,-444 179.54,-444 173.54,-444 167.54,-438 167.54,-432 167.54,-432 167.54,-420 167.54,-420 167.54,-414 173.54,-408 179.54,-408"/>
<text text-anchor="middle" x="205.04" y="-422.3" font-family="Times,serif" font-size="14.00">2:2 &#45; 0:0</text>
</g>
<!-- n9&#45;&gt;x5 -->
<g id="edge41" class="edge">
<title>n9:e&#45;&gt;x5:w</title>
<path fill="none" stroke="black" d="M87.23,-426C118.56,-426 128.87,-426 155.77,-426"/>
<polygon fill="black" stroke="black" points="156.04,-429.5 166.04,-426 156.04,-422.5 156.04,-429.5"/>
</g>
<!-- x6 -->
<g id="node13" class="node">
<title>x6</title>
<path fill="none" stroke="black" d="M179.54,-188C179.54,-188 230.54,-188 230.54,-188 236.54,-188 242.54,-194 242.54,-200 242.54,-200 242.54,-212 242.54,-212 242.54,-218 236.54,-224 230.54,-224 230.54,-224 179.54,-224 179.54,-224 173.54,-224 167.54,-218 167.54,-212 167.54,-212 167.54,-200 167.54,-200 167.54,-194 173.54,-188 179.54,-188"/>
<text text-anchor="middle" x="205.04" y="-202.3" font-family="Times,serif" font-size="14.00">0:0 &#45; 0:0</text>
</g>
<!-- n9&#45;&gt;x6 -->
<g id="edge42" class="edge">
<title>n9:e&#45;&gt;x6:w</title>
<path fill="none" stroke="black" d="M87.23,-426C130.64,-426 99.14,-270.11 123.23,-234 133.78,-218.19 140.72,-209.25 155.99,-206.74"/>
<polygon fill="black" stroke="black" points="156.32,-210.22 166.04,-206 155.81,-203.24 156.32,-210.22"/>
</g>
<!-- x9 -->
<g id="node17" class="node">
<title>x9</title>
<path fill="none" stroke="black" d="M179.54,-573C179.54,-573 230.54,-573 230.54,-573 236.54,-573 242.54,-579 242.54,-585 242.54,-585 242.54,-597 242.54,-597 242.54,-603 236.54,-609 230.54,-609 230.54,-609 179.54,-609 179.54,-609 173.54,-609 167.54,-603 167.54,-597 167.54,-597 167.54,-585 167.54,-585 167.54,-579 173.54,-573 179.54,-573"/>
<text text-anchor="middle" x="205.04" y="-587.3" font-family="Times,serif" font-size="14.00">2:2 &#45; 0:0</text>
</g>
<!-- n9&#45;&gt;x9 -->
<g id="edge43" class="edge">
<title>n9:e&#45;&gt;x9:w</title>
<path fill="none" stroke="black" d="M87.23,-426C150.19,-426 86.44,-511.92 123.23,-563 134.34,-578.42 140.9,-587.63 156.04,-590.23"/>
<polygon fill="black" stroke="black" points="155.8,-593.72 166.04,-591 156.34,-586.74 155.8,-593.72"/>
</g>
<!-- x12 -->
<g id="node21" class="node">
<title>x12</title>
<path fill="none" stroke="black" d="M179.54,-903C179.54,-903 230.54,-903 230.54,-903 236.54,-903 242.54,-909 242.54,-915 242.54,-915 242.54,-927 242.54,-927 242.54,-933 236.54,-939 230.54,-939 230.54,-939 179.54,-939 179.54,-939 173.54,-939 167.54,-933 167.54,-927 167.54,-927 167.54,-915 167.54,-915 167.54,-909 173.54,-903 179.54,-903"/>
<text text-anchor="middle" x="205.04" y="-917.3" font-family="Times,serif" font-size="14.00">2:2 &#45; 0:0</text>
</g>
<!-- n9&#45;&gt;x12 -->
<g id="edge37" class="edge">
<title>n9:e&#45;&gt;x12:w</title>
<path fill="none" stroke="black" d="M87.23,-426C139.28,-426 96.73,-848.21 123.23,-893 132.91,-909.36 140.43,-917.93 155.92,-920.31"/>
<polygon fill="black" stroke="black" points="155.82,-923.81 166.04,-921 156.3,-916.82 155.82,-923.81"/>
</g>
<!-- x13 -->
<g id="node23" class="node">
<title>x13</title>
<path fill="none" stroke="black" d="M179.54,-298C179.54,-298 230.54,-298 230.54,-298 236.54,-298 242.54,-304 242.54,-310 242.54,-310 242.54,-322 242.54,-322 242.54,-328 236.54,-334 230.54,-334 230.54,-334 179.54,-334 179.54,-334 173.54,-334 167.54,-328 167.54,-322 167.54,-322 167.54,-310 167.54,-310 167.54,-304 173.54,-298 179.54,-298"/>
<text text-anchor="middle" x="205.04" y="-312.3" font-family="Times,serif" font-size="14.00">0:0 &#45; 0:0</text>
</g>
<!-- n9&#45;&gt;x13 -->
<g id="edge38" class="edge">
<title>n9:e&#45;&gt;x13:w</title>
<path fill="none" stroke="black" d="M87.23,-426C127.04,-426 97.51,-374.38 123.23,-344 135.4,-329.63 141.18,-319.86 155.72,-316.92"/>
<polygon fill="black" stroke="black" points="156.39,-320.38 166.04,-316 155.77,-313.41 156.39,-320.38"/>
</g>
<!-- x14 -->
<g id="node25" class="node">
<title>x14</title>
<path fill="none" stroke="black" d="M179.54,-78C179.54,-78 230.54,-78 230.54,-78 236.54,-78 242.54,-84 242.54,-90 242.54,-90 242.54,-102 242.54,-102 242.54,-108 236.54,-114 230.54,-114 230.54,-114 179.54,-114 179.54,-114 173.54,-114 167.54,-108 167.54,-102 167.54,-102 167.54,-90 167.54,-90 167.54,-84 173.54,-78 179.54,-78"/>
<text text-anchor="middle" x="205.04" y="-92.3" font-family="Times,serif" font-size="14.00">1:1 &#45; 0:0</text>
</g>
<!-- n9&#45;&gt;x14 -->
<g id="edge39" class="edge">
<title>n9:e&#45;&gt;x14:w</title>
<path fill="none" stroke="black" d="M87.23,-426C154.82,-426 87.61,-181.44 123.23,-124 133.25,-107.85 140.55,-99.13 155.95,-96.71"/>
<polygon fill="black" stroke="black" points="156.31,-100.19 166.04,-96 155.82,-93.21 156.31,-100.19"/>
</g>
<!-- c14 -->
<g id="node4" class="node">
<title>c14</title>
<polygon fill="none" stroke="black" points="322.84,-1061 322.84,-1153 457.84,-1153 457.84,-1061 322.84,-1061"/>
<text text-anchor="middle" x="336.34" y="-1137.8" font-family="Times,serif" font-size="14.00">A</text>
<polyline fill="none" stroke="black" points="322.84,-1130 349.84,-1130 "/>
<text text-anchor="middle" x="336.34" y="-1114.8" font-family="Times,serif" font-size="14.00">B</text>
<polyline fill="none" stroke="black" points="322.84,-1107 349.84,-1107 "/>
<text text-anchor="middle" x="336.34" y="-1091.8" font-family="Times,serif" font-size="14.00">S</text>
<polyline fill="none" stroke="black" points="322.84,-1084 349.84,-1084 "/>
<text text-anchor="middle" x="336.34" y="-1068.8" font-family="Times,serif" font-size="14.00">Z</text>
<polyline fill="none" stroke="black" points="349.84,-1061 349.84,-1153 "/>
<text text-anchor="middle" x="393.34" y="-1110.8" font-family="Times,serif" font-size="14.00">$129</text>
<text text-anchor="middle" x="393.34" y="-1095.8" font-family="Times,serif" font-size="14.00">MUX2_X1</text>
<polyline fill="none" stroke="black" points="436.84,-1061 436.84,-1153 "/>
<text text-anchor="middle" x="447.34" y="-1103.3" font-family="Times,serif" font-size="14.00"> </text>
</g>
<!-- x0&#45;&gt;c14 -->
<g id="edge1" class="edge">
<title>x0:e&#45;&gt;c14:w</title>
<path fill="none" stroke="black" d="M256.22,-1194.12C268.11,-1189.84 272.37,-1178.97 286.84,-1169 299.2,-1160.49 302.02,-1149.56 311.1,-1144.62"/>
<polygon fill="none" stroke="black" points="255.9,-1194.17 250.58,-1199.04 244.04,-1196 249.36,-1191.13 255.9,-1194.17"/>
<polygon fill="none" stroke="black" points="311.13,-1144.62 316.12,-1139.4 322.84,-1142 317.86,-1147.21 311.13,-1144.62"/>
</g>
<!-- x1&#45;&gt;c14 -->
<g id="edge2" class="edge">
<title>x1:e&#45;&gt;c14:w</title>
<path fill="none" stroke="black" d="M256.02,-1140.11C278.62,-1136.57 288.12,-1123.53 310.63,-1119.93"/>
<polygon fill="none" stroke="black" points="256.01,-1140.11 250.32,-1144.54 244.04,-1141 249.73,-1136.57 256.01,-1140.11"/>
<polygon fill="none" stroke="black" points="310.88,-1119.91 316.56,-1115.46 322.84,-1119 317.16,-1123.44 310.88,-1119.91"/>
</g>
<!-- x2&#45;&gt;c14 -->
<g id="edge3" class="edge">
<title>x2:e&#45;&gt;c14:w</title>
<path fill="none" stroke="black" d="M256,-977.26C269.45,-980.52 275.39,-989.96 286.84,-1004 311.22,-1033.89 286.47,-1082.32 310.88,-1092.91"/>
<polygon fill="none" stroke="black" points="255.97,-977.26 249.59,-980.61 244.04,-976 250.42,-972.65 255.97,-977.26"/>
<polygon fill="none" stroke="black" points="311.02,-1092.94 317.62,-1090.03 322.84,-1095 316.24,-1097.91 311.02,-1092.94"/>
</g>
<!-- c15 -->
<g id="node8" class="node">
<title>c15</title>
<polygon fill="none" stroke="black" points="322.84,-421 322.84,-513 457.84,-513 457.84,-421 322.84,-421"/>
<text text-anchor="middle" x="336.34" y="-497.8" font-family="Times,serif" font-size="14.00">A</text>
<polyline fill="none" stroke="black" points="322.84,-490 349.84,-490 "/>
<text text-anchor="middle" x="336.34" y="-474.8" font-family="Times,serif" font-size="14.00">B</text>
<polyline fill="none" stroke="black" points="322.84,-467 349.84,-467 "/>
<text text-anchor="middle" x="336.34" y="-451.8" font-family="Times,serif" font-size="14.00">S</text>
<polyline fill="none" stroke="black" points="322.84,-444 349.84,-444 "/>
<text text-anchor="middle" x="336.34" y="-428.8" font-family="Times,serif" font-size="14.00">Z</text>
<polyline fill="none" stroke="black" points="349.84,-421 349.84,-513 "/>
<text text-anchor="middle" x="393.34" y="-470.8" font-family="Times,serif" font-size="14.00">$130</text>
<text text-anchor="middle" x="393.34" y="-455.8" font-family="Times,serif" font-size="14.00">MUX2_X1</text>
<polyline fill="none" stroke="black" points="436.84,-421 436.84,-513 "/>
<text text-anchor="middle" x="447.34" y="-463.3" font-family="Times,serif" font-size="14.00"> </text>
</g>
<!-- x3&#45;&gt;c15 -->
<g id="edge4" class="edge">
<title>x3:e&#45;&gt;c15:w</title>
<path fill="none" stroke="black" d="M256.15,-699.85C269.94,-696.86 276.62,-687.96 286.84,-673 328.1,-612.64 254.75,-514.38 310.81,-503.07"/>
<polygon fill="none" stroke="black" points="255.98,-699.87 250.39,-704.42 244.04,-701 249.63,-696.45 255.98,-699.87"/>
<polygon fill="none" stroke="black" points="310.89,-503.06 316.51,-498.55 322.84,-502 317.22,-506.52 310.89,-503.06"/>
</g>
<!-- x4&#45;&gt;c15 -->
<g id="edge5" class="edge">
<title>x4:e&#45;&gt;c15:w</title>
<path fill="none" stroke="black" d="M256.05,-480.91C277.96,-480.59 288.83,-479.42 310.71,-479.09"/>
<polygon fill="none" stroke="black" points="256.04,-480.91 250.07,-484.96 244.04,-481 250.01,-476.96 256.04,-480.91"/>
<polygon fill="none" stroke="black" points="310.84,-479.09 316.81,-475.04 322.84,-479 316.87,-483.04 310.84,-479.09"/>
</g>
<!-- x5&#45;&gt;c15 -->
<g id="edge6" class="edge">
<title>x5:e&#45;&gt;c15:w</title>
<path fill="none" stroke="black" d="M256.26,-427.17C279.22,-431.86 287.71,-449.19 310.71,-453.84"/>
<polygon fill="none" stroke="black" points="255.98,-427.15 249.63,-430.56 244.04,-426 250.39,-422.59 255.98,-427.15"/>
<polygon fill="none" stroke="black" points="310.9,-453.86 317.25,-450.45 322.84,-455 316.49,-458.41 310.9,-453.86"/>
</g>
<!-- c16 -->
<g id="node12" class="node">
<title>c16</title>
<polygon fill="none" stroke="black" points="322.84,-178 322.84,-270 457.84,-270 457.84,-178 322.84,-178"/>
<text text-anchor="middle" x="336.34" y="-254.8" font-family="Times,serif" font-size="14.00">A</text>
<polyline fill="none" stroke="black" points="322.84,-247 349.84,-247 "/>
<text text-anchor="middle" x="336.34" y="-231.8" font-family="Times,serif" font-size="14.00">B</text>
<polyline fill="none" stroke="black" points="322.84,-224 349.84,-224 "/>
<text text-anchor="middle" x="336.34" y="-208.8" font-family="Times,serif" font-size="14.00">S</text>
<polyline fill="none" stroke="black" points="322.84,-201 349.84,-201 "/>
<text text-anchor="middle" x="336.34" y="-185.8" font-family="Times,serif" font-size="14.00">Z</text>
<polyline fill="none" stroke="black" points="349.84,-178 349.84,-270 "/>
<text text-anchor="middle" x="393.34" y="-227.8" font-family="Times,serif" font-size="14.00">$131</text>
<text text-anchor="middle" x="393.34" y="-212.8" font-family="Times,serif" font-size="14.00">MUX2_X1</text>
<polyline fill="none" stroke="black" points="436.84,-178 436.84,-270 "/>
<text text-anchor="middle" x="447.34" y="-220.3" font-family="Times,serif" font-size="14.00"> </text>
</g>
<!-- x6&#45;&gt;c16 -->
<g id="edge7" class="edge">
<title>x6:e&#45;&gt;c16:w</title>
<path fill="none" stroke="black" d="M256.07,-206.26C278.01,-207.24 288.79,-210.74 310.68,-211.74"/>
<polygon fill="none" stroke="black" points="256.04,-206.26 249.95,-210.13 244.04,-206 250.12,-202.13 256.04,-206.26"/>
<polygon fill="none" stroke="black" points="310.85,-211.74 316.93,-207.87 322.84,-212 316.76,-215.87 310.85,-211.74"/>
</g>
<!-- c17 -->
<g id="node14" class="node">
<title>c17</title>
<polygon fill="none" stroke="black" points="322.84,-627 322.84,-719 457.84,-719 457.84,-627 322.84,-627"/>
<text text-anchor="middle" x="336.34" y="-703.8" font-family="Times,serif" font-size="14.00">A</text>
<polyline fill="none" stroke="black" points="322.84,-696 349.84,-696 "/>
<text text-anchor="middle" x="336.34" y="-680.8" font-family="Times,serif" font-size="14.00">B</text>
<polyline fill="none" stroke="black" points="322.84,-673 349.84,-673 "/>
<text text-anchor="middle" x="336.34" y="-657.8" font-family="Times,serif" font-size="14.00">S</text>
<polyline fill="none" stroke="black" points="322.84,-650 349.84,-650 "/>
<text text-anchor="middle" x="336.34" y="-634.8" font-family="Times,serif" font-size="14.00">Z</text>
<polyline fill="none" stroke="black" points="349.84,-627 349.84,-719 "/>
<text text-anchor="middle" x="393.34" y="-676.8" font-family="Times,serif" font-size="14.00">$132</text>
<text text-anchor="middle" x="393.34" y="-661.8" font-family="Times,serif" font-size="14.00">MUX2_X1</text>
<polyline fill="none" stroke="black" points="436.84,-627 436.84,-719 "/>
<text text-anchor="middle" x="447.34" y="-669.3" font-family="Times,serif" font-size="14.00"> </text>
</g>
<!-- x7&#45;&gt;c17 -->
<g id="edge8" class="edge">
<title>x7:e&#45;&gt;c17:w</title>
<path fill="none" stroke="black" d="M256.09,-864.81C269.76,-861.72 276.16,-852.63 286.84,-838 319.44,-793.37 271.58,-720.55 310.87,-709.44"/>
<polygon fill="none" stroke="black" points="255.98,-864.83 250.4,-869.39 244.04,-866 249.62,-861.43 255.98,-864.83"/>
<polygon fill="none" stroke="black" points="310.93,-709.43 316.41,-704.74 322.84,-708 317.36,-712.69 310.93,-709.43"/>
</g>
<!-- x8&#45;&gt;c17 -->
<g id="edge9" class="edge">
<title>x8:e&#45;&gt;c17:w</title>
<path fill="none" stroke="black" d="M256.12,-754.38C268.69,-750.46 273.43,-739.92 286.84,-728 301.69,-714.81 299.91,-695.33 311.18,-687.97"/>
<polygon fill="none" stroke="black" points="255.93,-754.4 250.52,-759.17 244.04,-756 249.45,-751.24 255.93,-754.4"/>
<polygon fill="none" stroke="black" points="311.21,-687.96 316.04,-682.6 322.84,-685 318.02,-690.36 311.21,-687.96"/>
</g>
<!-- x9&#45;&gt;c17 -->
<g id="edge10" class="edge">
<title>x9:e&#45;&gt;c17:w</title>
<path fill="none" stroke="black" d="M256.11,-592.63C268.66,-596.57 273.37,-607.16 286.84,-619 301.42,-631.8 300.1,-650.55 310.97,-657.89"/>
<polygon fill="none" stroke="black" points="255.93,-592.61 249.45,-595.77 244.04,-591 250.52,-587.84 255.93,-592.61"/>
<polygon fill="none" stroke="black" points="311.23,-657.96 318.05,-655.61 322.84,-661 316.03,-663.35 311.23,-657.96"/>
</g>
<!-- c18 -->
<g id="node18" class="node">
<title>c18</title>
<polygon fill="none" stroke="black" points="322.84,-908 322.84,-1000 457.84,-1000 457.84,-908 322.84,-908"/>
<text text-anchor="middle" x="336.34" y="-984.8" font-family="Times,serif" font-size="14.00">A</text>
<polyline fill="none" stroke="black" points="322.84,-977 349.84,-977 "/>
<text text-anchor="middle" x="336.34" y="-961.8" font-family="Times,serif" font-size="14.00">B</text>
<polyline fill="none" stroke="black" points="322.84,-954 349.84,-954 "/>
<text text-anchor="middle" x="336.34" y="-938.8" font-family="Times,serif" font-size="14.00">S</text>
<polyline fill="none" stroke="black" points="322.84,-931 349.84,-931 "/>
<text text-anchor="middle" x="336.34" y="-915.8" font-family="Times,serif" font-size="14.00">Z</text>
<polyline fill="none" stroke="black" points="349.84,-908 349.84,-1000 "/>
<text text-anchor="middle" x="393.34" y="-957.8" font-family="Times,serif" font-size="14.00">$133</text>
<text text-anchor="middle" x="393.34" y="-942.8" font-family="Times,serif" font-size="14.00">MUX2_X1</text>
<polyline fill="none" stroke="black" points="436.84,-908 436.84,-1000 "/>
<text text-anchor="middle" x="447.34" y="-950.3" font-family="Times,serif" font-size="14.00"> </text>
</g>
<!-- x10&#45;&gt;c18 -->
<g id="edge11" class="edge">
<title>x10:e&#45;&gt;c18:w</title>
<path fill="none" stroke="black" d="M256.21,-1084.65C269.14,-1081.33 274.86,-1072.09 286.84,-1059 306.96,-1037.03 293.55,-1001.72 310.73,-991.72"/>
<polygon fill="none" stroke="black" points="255.96,-1084.68 250.44,-1089.31 244.04,-1086 249.56,-1081.36 255.96,-1084.68"/>
<polygon fill="none" stroke="black" points="311.13,-991.63 316.11,-986.41 322.84,-989 317.86,-994.22 311.13,-991.63"/>
</g>
<!-- x11&#45;&gt;c18 -->
<g id="edge12" class="edge">
<title>x11:e&#45;&gt;c18:w</title>
<path fill="none" stroke="black" d="M255.98,-1029.41C268.41,-1025.56 273.13,-1015.26 286.84,-1004 300.89,-992.46 300.76,-975.76 311.13,-969"/>
<polygon fill="none" stroke="black" points="255.93,-1029.41 250.51,-1034.17 244.04,-1031 249.46,-1026.24 255.93,-1029.41"/>
<polygon fill="none" stroke="black" points="311.22,-968.98 316.04,-963.62 322.84,-966 318.02,-971.36 311.22,-968.98"/>
</g>
<!-- x12&#45;&gt;c18 -->
<g id="edge13" class="edge">
<title>x12:e&#45;&gt;c18:w</title>
<path fill="none" stroke="black" d="M256.34,-921.9C278.68,-925.36 288.31,-937.72 310.71,-941.12"/>
<polygon fill="none" stroke="black" points="256.01,-921.88 249.73,-925.43 244.04,-921 250.31,-917.45 256.01,-921.88"/>
<polygon fill="none" stroke="black" points="310.87,-941.14 317.15,-937.58 322.84,-942 316.57,-945.56 310.87,-941.14"/>
</g>
<!-- c19 -->
<g id="node22" class="node">
<title>c19</title>
<polygon fill="none" stroke="black" points="322.84,-303 322.84,-395 457.84,-395 457.84,-303 322.84,-303"/>
<text text-anchor="middle" x="336.34" y="-379.8" font-family="Times,serif" font-size="14.00">A</text>
<polyline fill="none" stroke="black" points="322.84,-372 349.84,-372 "/>
<text text-anchor="middle" x="336.34" y="-356.8" font-family="Times,serif" font-size="14.00">B</text>
<polyline fill="none" stroke="black" points="322.84,-349 349.84,-349 "/>
<text text-anchor="middle" x="336.34" y="-333.8" font-family="Times,serif" font-size="14.00">S</text>
<polyline fill="none" stroke="black" points="322.84,-326 349.84,-326 "/>
<text text-anchor="middle" x="336.34" y="-310.8" font-family="Times,serif" font-size="14.00">Z</text>
<polyline fill="none" stroke="black" points="349.84,-303 349.84,-395 "/>
<text text-anchor="middle" x="393.34" y="-352.8" font-family="Times,serif" font-size="14.00">$134</text>
<text text-anchor="middle" x="393.34" y="-337.8" font-family="Times,serif" font-size="14.00">MUX2_X1</text>
<polyline fill="none" stroke="black" points="436.84,-303 436.84,-395 "/>
<text text-anchor="middle" x="447.34" y="-345.3" font-family="Times,serif" font-size="14.00"> </text>
</g>
<!-- x13&#45;&gt;c19 -->
<g id="edge14" class="edge">
<title>x13:e&#45;&gt;c19:w</title>
<path fill="none" stroke="black" d="M256.34,-316.9C278.68,-320.36 288.31,-332.72 310.71,-336.12"/>
<polygon fill="none" stroke="black" points="256.01,-316.88 249.73,-320.43 244.04,-316 250.31,-312.45 256.01,-316.88"/>
<polygon fill="none" stroke="black" points="310.87,-336.14 317.15,-332.58 322.84,-337 316.57,-340.56 310.87,-336.14"/>
</g>
<!-- x14&#45;&gt;c20 -->
<g id="edge15" class="edge">
<title>x14:e&#45;&gt;c20:w</title>
<path fill="none" stroke="black" d="M256.05,-96.13C277.97,-96.62 288.82,-98.37 310.7,-98.87"/>
<polygon fill="none" stroke="black" points="256.04,-96.13 249.99,-100.06 244.04,-96 250.08,-92.06 256.04,-96.13"/>
<polygon fill="none" stroke="black" points="310.84,-98.87 316.89,-94.94 322.84,-99 316.8,-102.93 310.84,-98.87"/>
</g>
<!-- n1 -->
<g id="node26" class="node">
<title>n1</title>
<polygon fill="none" stroke="black" points="205.04,-664 123.43,-646 205.04,-628 286.65,-646 205.04,-664"/>
<text text-anchor="middle" x="205.04" y="-642.3" font-family="Times,serif" font-size="14.00">$new_n13</text>
</g>
<!-- n1&#45;&gt;c14 -->
<g id="edge16" class="edge">
<title>n1:e&#45;&gt;c14:w</title>
<path fill="none" stroke="black" d="M286.84,-646C378.14,-646 239.49,-1039.37 312.82,-1070.1"/>
<polygon fill="black" stroke="black" points="312.37,-1073.58 322.84,-1072 313.67,-1066.7 312.37,-1073.58"/>
</g>
<!-- n1&#45;&gt;c16 -->
<g id="edge17" class="edge">
<title>n1:e&#45;&gt;c16:w</title>
<path fill="none" stroke="black" d="M286.84,-646C374.55,-646 243.03,-268.94 312.76,-238.01"/>
<polygon fill="black" stroke="black" points="313.72,-241.39 322.84,-236 312.35,-234.53 313.72,-241.39"/>
</g>
<!-- n2 -->
<g id="node27" class="node">
<title>n2</title>
<polygon fill="none" stroke="black" points="205.04,-389 123.43,-371 205.04,-353 286.65,-371 205.04,-389"/>
<text text-anchor="middle" x="205.04" y="-367.3" font-family="Times,serif" font-size="14.00">$new_n14</text>
</g>
<!-- n2&#45;&gt;c15 -->
<g id="edge18" class="edge">
<title>n2:e&#45;&gt;c15:w</title>
<path fill="none" stroke="black" d="M286.84,-371C314.14,-371 297.49,-416.87 313.12,-429.06"/>
<polygon fill="black" stroke="black" points="312.26,-432.45 322.84,-432 314.29,-425.75 312.26,-432.45"/>
</g>
<!-- n2&#45;&gt;c16 -->
<g id="edge19" class="edge">
<title>n2:e&#45;&gt;c16:w</title>
<path fill="none" stroke="black" d="M286.84,-371C335.04,-371 280.53,-275.82 312.69,-260.94"/>
<polygon fill="black" stroke="black" points="313.68,-264.32 322.84,-259 312.36,-257.44 313.68,-264.32"/>
</g>
<!-- n3 -->
<g id="node28" class="node">
<title>n3</title>
<polygon fill="none" stroke="black" points="205.04,-169 123.43,-151 205.04,-133 286.65,-151 205.04,-169"/>
<text text-anchor="middle" x="205.04" y="-147.3" font-family="Times,serif" font-size="14.00">$new_n15</text>
</g>
<!-- n3&#45;&gt;c16 -->
<g id="edge20" class="edge">
<title>n3:e&#45;&gt;c16:w</title>
<path fill="none" stroke="black" d="M286.84,-151C305.93,-151 302.27,-176.57 313.18,-185.76"/>
<polygon fill="black" stroke="black" points="312.25,-189.14 322.84,-189 314.48,-182.5 312.25,-189.14"/>
</g>
<!-- n3&#45;&gt;c20 -->
<g id="edge21" class="edge">
<title>n3:e&#45;&gt;c20:w</title>
<path fill="none" stroke="black" d="M286.84,-151C303,-151 303.39,-133.22 313.15,-126"/>
<polygon fill="black" stroke="black" points="314.32,-129.3 322.84,-123 312.26,-122.61 314.32,-129.3"/>
</g>
<!-- n4 -->
<g id="node29" class="node">
<title>n4</title>
<polygon fill="none" stroke="black" points="205.04,-554 123.43,-536 205.04,-518 286.65,-536 205.04,-554"/>
<text text-anchor="middle" x="205.04" y="-532.3" font-family="Times,serif" font-size="14.00">$new_n16</text>
</g>
<!-- n4&#45;&gt;c17 -->
<g id="edge22" class="edge">
<title>n4:e&#45;&gt;c17:w</title>
<path fill="none" stroke="black" d="M286.84,-536C330.79,-536 284.31,-621.22 312.71,-635.87"/>
<polygon fill="black" stroke="black" points="312.34,-639.37 322.84,-638 313.78,-632.52 312.34,-639.37"/>
</g>
<!-- n4&#45;&gt;c19 -->
<g id="edge23" class="edge">
<title>n4:e&#45;&gt;c19:w</title>
<path fill="none" stroke="black" d="M286.84,-536C362.37,-536 254.95,-377.67 312.61,-362.21"/>
<polygon fill="black" stroke="black" points="313.32,-365.65 322.84,-361 312.5,-358.7 313.32,-365.65"/>
</g>
<!-- n5 -->
<g id="node30" class="node">
<title>n5</title>
<polygon fill="none" stroke="black" points="205.04,-829 123.43,-811 205.04,-793 286.65,-811 205.04,-829"/>
<text text-anchor="middle" x="205.04" y="-807.3" font-family="Times,serif" font-size="14.00">$new_n17</text>
</g>
<!-- n5&#45;&gt;c18 -->
<g id="edge24" class="edge">
<title>n5:e&#45;&gt;c18:w</title>
<path fill="none" stroke="black" d="M286.84,-811C333.49,-811 281.73,-902.78 312.99,-917.13"/>
<polygon fill="black" stroke="black" points="312.36,-920.57 322.84,-919 313.67,-913.69 312.36,-920.57"/>
</g>
<!-- n5&#45;&gt;c19 -->
<g id="edge25" class="edge">
<title>n5:e&#45;&gt;c19:w</title>
<path fill="none" stroke="black" d="M286.84,-811C378.35,-811 239.3,-416.71 312.8,-385.9"/>
<polygon fill="black" stroke="black" points="313.67,-389.3 322.84,-384 312.37,-382.42 313.67,-389.3"/>
</g>
<!-- n6 -->
<g id="node31" class="node">
<title>n6</title>
<polygon fill="none" stroke="black" points="205.04,-279 123.43,-261 205.04,-243 286.65,-261 205.04,-279"/>
<text text-anchor="middle" x="205.04" y="-257.3" font-family="Times,serif" font-size="14.00">$new_n18</text>
</g>
<!-- n6&#45;&gt;c19 -->
<g id="edge26" class="edge">
<title>n6:e&#45;&gt;c19:w</title>
<path fill="none" stroke="black" d="M286.84,-261C311.09,-261 299.5,-299.43 313.11,-310.84"/>
<polygon fill="black" stroke="black" points="312.25,-314.25 322.84,-314 314.41,-307.59 312.25,-314.25"/>
</g>
<!-- n6&#45;&gt;c20 -->
<g id="edge27" class="edge">
<title>n6:e&#45;&gt;c20:w</title>
<path fill="none" stroke="black" d="M286.84,-261C336.43,-261 279.16,-162.44 312.88,-147.81"/>
<polygon fill="black" stroke="black" points="313.63,-151.23 322.84,-146 312.38,-144.34 313.63,-151.23"/>
</g>
</g>
</svg>
