<?xml version="1.0" encoding="UTF-8" standalone="no"?>
<!DOCTYPE svg PUBLIC "-//W3C//DTD SVG 1.1//EN"
 "http://www.w3.org/Graphics/SVG/1.1/DTD/svg11.dtd">
<!-- Generated by graphviz version 2.43.0 (0)
 -->
<!-- Title: level_sensitive_latch Pages: 1 -->
<svg width="226pt" height="181pt"
 viewBox="0.00 0.00 225.50 180.50" xmlns="http://www.w3.org/2000/svg" xmlns:xlink="http://www.w3.org/1999/xlink">
<g id="graph0" class="graph" transform="scale(1 1) rotate(0) translate(4 176.5)">
<title>level_sensitive_latch</title>
<polygon fill="white" stroke="transparent" points="-4,4 -4,-176.5 221.5,-176.5 221.5,4 -4,4"/>
<text text-anchor="middle" x="108.75" y="-7.8" font-family="Times,serif" font-size="14.00">level_sensitive_latch</text>
<!-- n1 -->
<g id="node1" class="node">
<title>n1</title>
<polygon fill="none" stroke="black" points="57.25,-33.54 57.25,-48.46 41.43,-59 19.07,-59 3.25,-48.46 3.25,-33.54 19.07,-23 41.43,-23 57.25,-33.54"/>
<text text-anchor="middle" x="30.25" y="-37.3" font-family="Times,serif" font-size="14.00">d</text>
</g>
<!-- n2 -->
<g id="node2" class="node">
<title>n2</title>
<polygon fill="none" stroke="black" points="60.25,-87.54 60.25,-102.46 42.68,-113 17.82,-113 0.25,-102.46 0.25,-87.54 17.82,-77 42.68,-77 60.25,-87.54"/>
<text text-anchor="middle" x="30.25" y="-91.3" font-family="Times,serif" font-size="14.00">enb</text>
</g>
<!-- n3 -->
<g id="node3" class="node">
<title>n3</title>
<polygon fill="none" stroke="black" points="57.25,-141.54 57.25,-156.46 41.43,-167 19.07,-167 3.25,-156.46 3.25,-141.54 19.07,-131 41.43,-131 57.25,-141.54"/>
<text text-anchor="middle" x="30.25" y="-145.3" font-family="Times,serif" font-size="14.00">q</text>
</g>
<!-- c6 -->
<g id="node4" class="node">
<title>c6</title>
<polygon fill="none" stroke="black" points="96.5,-126 96.5,-172 217.5,-172 217.5,-126 96.5,-126"/>
<text text-anchor="middle" x="109.5" y="-156.8" font-family="Times,serif" font-size="14.00">A</text>
<polyline fill="none" stroke="black" points="96.5,-149 122.5,-149 "/>
<text text-anchor="middle" x="109.5" y="-133.8" font-family="Times,serif" font-size="14.00">Z</text>
<polyline fill="none" stroke="black" points="122.5,-126 122.5,-172 "/>
<text text-anchor="middle" x="159.5" y="-152.8" font-family="Times,serif" font-size="14.00">$82</text>
<text text-anchor="middle" x="159.5" y="-137.8" font-family="Times,serif" font-size="14.00">BUF_X1</text>
<polyline fill="none" stroke="black" points="196.5,-126 196.5,-172 "/>
<text text-anchor="middle" x="207" y="-145.3" font-family="Times,serif" font-size="14.00"> </text>
</g>
<!-- n3&#45;&gt;c6 -->
<g id="edge1" class="edge">
<title>n3:e&#45;&gt;c6:w</title>
<path fill="none" stroke="black" d="M58.25,-149C72.03,-149 76.72,-156.18 86.38,-159.43"/>
<polygon fill="black" stroke="black" points="86.08,-162.93 96.5,-161 87.15,-156.01 86.08,-162.93"/>
</g>
<!-- n3&#45;&gt;c6 -->
<g id="edge2" class="edge">
<title>n3:e&#45;&gt;c6:w</title>
<path fill="none" stroke="black" d="M58.25,-149C72.03,-149 76.72,-141.82 86.38,-138.57"/>
<polygon fill="black" stroke="black" points="87.15,-141.99 96.5,-137 86.08,-135.07 87.15,-141.99"/>
</g>
</g>
</svg>
