<?xml version="1.0" encoding="UTF-8" standalone="no"?>
<!DOCTYPE svg PUBLIC "-//W3C//DTD SVG 1.1//EN"
 "http://www.w3.org/Graphics/SVG/1.1/DTD/svg11.dtd">
<!-- Generated by graphviz version 2.43.0 (0)
 -->
<!-- Title: srlatch Pages: 1 -->
<svg width="346pt" height="438pt"
 viewBox="0.00 0.00 346.07 437.50" xmlns="http://www.w3.org/2000/svg" xmlns:xlink="http://www.w3.org/1999/xlink">
<g id="graph0" class="graph" transform="scale(1 1) rotate(0) translate(4 433.5)">
<title>srlatch</title>
<polygon fill="white" stroke="transparent" points="-4,4 -4,-433.5 342.07,-433.5 342.07,4 -4,4"/>
<text text-anchor="middle" x="169.03" y="-7.8" font-family="Times,serif" font-size="14.00">srlatch</text>
<!-- n3 -->
<g id="node1" class="node">
<title>n3</title>
<polygon fill="none" stroke="black" points="103.53,-33.54 103.53,-48.46 85.96,-59 61.11,-59 43.53,-48.46 43.53,-33.54 61.11,-23 85.96,-23 103.53,-33.54"/>
<text text-anchor="middle" x="73.53" y="-37.3" font-family="Times,serif" font-size="14.00">enb</text>
</g>
<!-- n4 -->
<g id="node2" class="node">
<title>n4</title>
<polygon fill="none" stroke="black" points="100.53,-322.54 100.53,-337.46 84.72,-348 62.35,-348 46.53,-337.46 46.53,-322.54 62.35,-312 84.72,-312 100.53,-322.54"/>
<text text-anchor="middle" x="73.53" y="-326.3" font-family="Times,serif" font-size="14.00">q</text>
</g>
<!-- c11 -->
<g id="node7" class="node">
<title>c11</title>
<polygon fill="none" stroke="black" points="196.57,-383 196.57,-429 324.57,-429 324.57,-383 196.57,-383"/>
<text text-anchor="middle" x="215.57" y="-413.8" font-family="Times,serif" font-size="14.00">A</text>
<polyline fill="none" stroke="black" points="196.57,-406 234.57,-406 "/>
<text text-anchor="middle" x="215.57" y="-390.8" font-family="Times,serif" font-size="14.00">ZN</text>
<polyline fill="none" stroke="black" points="234.57,-383 234.57,-429 "/>
<text text-anchor="middle" x="269.07" y="-409.8" font-family="Times,serif" font-size="14.00">$89</text>
<text text-anchor="middle" x="269.07" y="-394.8" font-family="Times,serif" font-size="14.00">INV_X1</text>
<polyline fill="none" stroke="black" points="303.57,-383 303.57,-429 "/>
<text text-anchor="middle" x="314.07" y="-402.3" font-family="Times,serif" font-size="14.00"> </text>
</g>
<!-- n4&#45;&gt;c11 -->
<g id="edge5" class="edge">
<title>n4:e&#45;&gt;c11:w</title>
<path fill="none" stroke="black" d="M101.53,-330C148.43,-330 145.73,-385.08 185.46,-393.05"/>
<polygon fill="black" stroke="black" points="185.28,-396.54 195.57,-394 185.94,-389.57 185.28,-396.54"/>
</g>
<!-- c14 -->
<g id="node8" class="node">
<title>c14</title>
<polygon fill="none" stroke="black" points="183.07,-184.5 183.07,-253.5 338.07,-253.5 338.07,-184.5 183.07,-184.5"/>
<text text-anchor="middle" x="202.07" y="-238.3" font-family="Times,serif" font-size="14.00">A1</text>
<polyline fill="none" stroke="black" points="183.07,-230.5 221.07,-230.5 "/>
<text text-anchor="middle" x="202.07" y="-215.3" font-family="Times,serif" font-size="14.00">A2</text>
<polyline fill="none" stroke="black" points="183.07,-207.5 221.07,-207.5 "/>
<text text-anchor="middle" x="202.07" y="-192.3" font-family="Times,serif" font-size="14.00">ZN</text>
<polyline fill="none" stroke="black" points="221.07,-184.5 221.07,-253.5 "/>
<text text-anchor="middle" x="269.07" y="-222.8" font-family="Times,serif" font-size="14.00">$90</text>
<text text-anchor="middle" x="269.07" y="-207.8" font-family="Times,serif" font-size="14.00">NAND2_X1</text>
<polyline fill="none" stroke="black" points="317.07,-184.5 317.07,-253.5 "/>
<text text-anchor="middle" x="327.57" y="-215.3" font-family="Times,serif" font-size="14.00"> </text>
</g>
<!-- n4&#45;&gt;c14 -->
<g id="edge6" class="edge">
<title>n4:e&#45;&gt;c14:w</title>
<path fill="none" stroke="black" d="M101.53,-330C126.53,-330 131.19,-316.31 147.07,-297 168.75,-270.62 149.89,-229.02 173.01,-220.54"/>
<polygon fill="black" stroke="black" points="173.71,-223.97 183.07,-219 172.65,-217.05 173.71,-223.97"/>
</g>
<!-- c17 -->
<g id="node9" class="node">
<title>c17</title>
<polygon fill="none" stroke="black" points="188.07,-272 188.07,-364 333.07,-364 333.07,-272 188.07,-272"/>
<text text-anchor="middle" x="207.07" y="-348.8" font-family="Times,serif" font-size="14.00">A</text>
<polyline fill="none" stroke="black" points="188.07,-341 226.07,-341 "/>
<text text-anchor="middle" x="207.07" y="-325.8" font-family="Times,serif" font-size="14.00">B1</text>
<polyline fill="none" stroke="black" points="188.07,-318 226.07,-318 "/>
<text text-anchor="middle" x="207.07" y="-302.8" font-family="Times,serif" font-size="14.00">B2</text>
<polyline fill="none" stroke="black" points="188.07,-295 226.07,-295 "/>
<text text-anchor="middle" x="207.07" y="-279.8" font-family="Times,serif" font-size="14.00">ZN</text>
<polyline fill="none" stroke="black" points="226.07,-272 226.07,-364 "/>
<text text-anchor="middle" x="269.07" y="-321.8" font-family="Times,serif" font-size="14.00">$91</text>
<text text-anchor="middle" x="269.07" y="-306.8" font-family="Times,serif" font-size="14.00">AOI21_X1</text>
<polyline fill="none" stroke="black" points="312.07,-272 312.07,-364 "/>
<text text-anchor="middle" x="322.57" y="-314.3" font-family="Times,serif" font-size="14.00"> </text>
</g>
<!-- n4&#45;&gt;c17 -->
<g id="edge7" class="edge">
<title>n4:e&#45;&gt;c17:w</title>
<path fill="none" stroke="black" d="M101.53,-330C135.63,-330 146.66,-330 176.25,-330"/>
<polygon fill="black" stroke="black" points="176.57,-333.5 186.57,-330 176.57,-326.5 176.57,-333.5"/>
</g>
<!-- n5 -->
<g id="node3" class="node">
<title>n5</title>
<polygon fill="none" stroke="black" points="108.88,-195.54 108.88,-210.46 88.18,-221 58.89,-221 38.18,-210.46 38.18,-195.54 58.89,-185 88.18,-185 108.88,-195.54"/>
<text text-anchor="middle" x="73.53" y="-199.3" font-family="Times,serif" font-size="14.00">qbar</text>
</g>
<!-- n5&#45;&gt;c14 -->
<g id="edge8" class="edge">
<title>n5:e&#45;&gt;c14:w</title>
<path fill="none" stroke="black" d="M110.53,-203C139.25,-203 148.6,-197.5 172.94,-196.25"/>
<polygon fill="black" stroke="black" points="173.15,-199.74 183.07,-196 172.98,-192.75 173.15,-199.74"/>
</g>
<!-- n6 -->
<g id="node4" class="node">
<title>n6</title>
<polygon fill="none" stroke="black" points="100.53,-87.54 100.53,-102.46 84.72,-113 62.35,-113 46.53,-102.46 46.53,-87.54 62.35,-77 84.72,-77 100.53,-87.54"/>
<text text-anchor="middle" x="73.53" y="-91.3" font-family="Times,serif" font-size="14.00">r</text>
</g>
<!-- c10 -->
<g id="node6" class="node">
<title>c10</title>
<polygon fill="none" stroke="black" points="196.57,-89 196.57,-135 324.57,-135 324.57,-89 196.57,-89"/>
<text text-anchor="middle" x="215.57" y="-119.8" font-family="Times,serif" font-size="14.00">A</text>
<polyline fill="none" stroke="black" points="196.57,-112 234.57,-112 "/>
<text text-anchor="middle" x="215.57" y="-96.8" font-family="Times,serif" font-size="14.00">ZN</text>
<polyline fill="none" stroke="black" points="234.57,-89 234.57,-135 "/>
<text text-anchor="middle" x="269.07" y="-115.8" font-family="Times,serif" font-size="14.00">$88</text>
<text text-anchor="middle" x="269.07" y="-100.8" font-family="Times,serif" font-size="14.00">INV_X1</text>
<polyline fill="none" stroke="black" points="303.57,-89 303.57,-135 "/>
<text text-anchor="middle" x="314.07" y="-108.3" font-family="Times,serif" font-size="14.00"> </text>
</g>
<!-- n6&#45;&gt;c10 -->
<g id="edge9" class="edge">
<title>n6:e&#45;&gt;c10:w</title>
<path fill="none" stroke="black" d="M101.53,-95C141.68,-95 150.5,-119.44 185.51,-123.45"/>
<polygon fill="black" stroke="black" points="185.39,-126.94 195.57,-124 185.77,-119.96 185.39,-126.94"/>
</g>
<!-- n7 -->
<g id="node5" class="node">
<title>n7</title>
<polygon fill="none" stroke="black" points="100.53,-262.54 100.53,-277.46 84.72,-288 62.35,-288 46.53,-277.46 46.53,-262.54 62.35,-252 84.72,-252 100.53,-262.54"/>
<text text-anchor="middle" x="73.53" y="-266.3" font-family="Times,serif" font-size="14.00">s</text>
</g>
<!-- n7&#45;&gt;c14 -->
<g id="edge10" class="edge">
<title>n7:e&#45;&gt;c14:w</title>
<path fill="none" stroke="black" d="M101.53,-270C136.1,-270 143.47,-247.2 172.73,-242.75"/>
<polygon fill="black" stroke="black" points="173.34,-246.21 183.07,-242 172.84,-239.23 173.34,-246.21"/>
</g>
<!-- n7&#45;&gt;c17 -->
<g id="edge11" class="edge">
<title>n7:e&#45;&gt;c17:w</title>
<path fill="none" stroke="black" d="M101.53,-270C138.89,-270 144.69,-299.82 176.37,-305.18"/>
<polygon fill="black" stroke="black" points="176.32,-308.69 186.57,-306 176.88,-301.71 176.32,-308.69"/>
</g>
<!-- n1 -->
<g id="node10" class="node">
<title>n1</title>
<polygon fill="none" stroke="black" points="73.53,-419 33.15,-401 73.53,-383 113.92,-401 73.53,-419"/>
<text text-anchor="middle" x="73.53" y="-397.3" font-family="Times,serif" font-size="14.00">$87</text>
</g>
<!-- n1&#45;&gt;c11 -->
<g id="edge1" class="edge">
<title>n1:e&#45;&gt;c11:w</title>
<path fill="none" stroke="black" d="M114.53,-401C147.74,-401 157.03,-414.84 185.57,-417.55"/>
<polygon fill="black" stroke="black" points="185.42,-421.04 195.57,-418 185.73,-414.05 185.42,-421.04"/>
</g>
<!-- n1&#45;&gt;c17 -->
<g id="edge2" class="edge">
<title>n1:e&#45;&gt;c17:w</title>
<path fill="none" stroke="black" d="M114.53,-401C172.26,-401 130.87,-296.86 176.59,-284.25"/>
<polygon fill="black" stroke="black" points="177.08,-287.71 186.57,-283 176.21,-280.77 177.08,-287.71"/>
</g>
<!-- n2 -->
<g id="node11" class="node">
<title>n2</title>
<polygon fill="none" stroke="black" points="73.53,-167 -0.03,-149 73.53,-131 147.1,-149 73.53,-167"/>
<text text-anchor="middle" x="73.53" y="-145.3" font-family="Times,serif" font-size="14.00">$new_n7</text>
</g>
<!-- n2&#45;&gt;c10 -->
<g id="edge3" class="edge">
<title>n2:e&#45;&gt;c10:w</title>
<path fill="none" stroke="black" d="M147.07,-149C173.64,-149 167.55,-112.15 185.45,-102.36"/>
<polygon fill="black" stroke="black" points="186.62,-105.68 195.57,-100 185.03,-98.87 186.62,-105.68"/>
</g>
<!-- n2&#45;&gt;c17 -->
<g id="edge4" class="edge">
<title>n2:e&#45;&gt;c17:w</title>
<path fill="none" stroke="black" d="M147.07,-149C235.63,-149 105.73,-336.61 176.37,-352"/>
<polygon fill="black" stroke="black" points="176.27,-355.51 186.57,-353 176.96,-348.54 176.27,-355.51"/>
</g>
</g>
</svg>
