<?xml version="1.0" encoding="UTF-8" standalone="no"?>
<!DOCTYPE svg PUBLIC "-//W3C//DTD SVG 1.1//EN"
 "http://www.w3.org/Graphics/SVG/1.1/DTD/svg11.dtd">
<!-- Generated by graphviz version 2.43.0 (0)
 -->
<!-- Title: vedic8x8 Pages: 1 -->
<svg width="2086pt" height="509pt"
 viewBox="0.00 0.00 2085.67 509.00" xmlns="http://www.w3.org/2000/svg" xmlns:xlink="http://www.w3.org/1999/xlink">
<g id="graph0" class="graph" transform="scale(1 1) rotate(0) translate(4 505)">
<title>vedic8x8</title>
<polygon fill="white" stroke="transparent" points="-4,4 -4,-505 2081.67,-505 2081.67,4 -4,4"/>
<text text-anchor="middle" x="1038.84" y="-7.8" font-family="Times,serif" font-size="14.00">vedic8x8</text>
<!-- n1 -->
<g id="node1" class="node">
<title>n1</title>
<polygon fill="none" stroke="black" points="54,-344.54 54,-359.46 38.18,-370 15.82,-370 0,-359.46 0,-344.54 15.82,-334 38.18,-334 54,-344.54"/>
<text text-anchor="middle" x="27" y="-348.3" font-family="Times,serif" font-size="14.00">a</text>
</g>
<!-- x0 -->
<g id="node20" class="node">
<title>x0</title>
<path fill="none" stroke="black" d="M102,-389C102,-389 153,-389 153,-389 159,-389 165,-395 165,-401 165,-401 165,-413 165,-413 165,-419 159,-425 153,-425 153,-425 102,-425 102,-425 96,-425 90,-419 90,-413 90,-413 90,-401 90,-401 90,-395 96,-389 102,-389"/>
<text text-anchor="middle" x="127.5" y="-403.3" font-family="Times,serif" font-size="14.00">3:0 &#45; 3:0</text>
</g>
<!-- n1&#45;&gt;x0 -->
<g id="edge13" class="edge">
<title>n1:e&#45;&gt;x0:w</title>
<path fill="none" stroke="black" stroke-width="3" d="M54,-352C78.88,-352 66.31,-391.88 80.07,-403.72"/>
<polygon fill="black" stroke="black" stroke-width="3" points="79.41,-407.19 90,-407 81.6,-400.54 79.41,-407.19"/>
</g>
<!-- x2 -->
<g id="node23" class="node">
<title>x2</title>
<path fill="none" stroke="black" d="M102,-444C102,-444 153,-444 153,-444 159,-444 165,-450 165,-456 165,-456 165,-468 165,-468 165,-474 159,-480 153,-480 153,-480 102,-480 102,-480 96,-480 90,-474 90,-468 90,-468 90,-456 90,-456 90,-450 96,-444 102,-444"/>
<text text-anchor="middle" x="127.5" y="-458.3" font-family="Times,serif" font-size="14.00">3:0 &#45; 3:0</text>
</g>
<!-- n1&#45;&gt;x2 -->
<g id="edge14" class="edge">
<title>n1:e&#45;&gt;x2:w</title>
<path fill="none" stroke="black" stroke-width="3" d="M54,-352C101.42,-352 48.29,-445.48 80,-460.09"/>
<polygon fill="black" stroke="black" stroke-width="3" points="79.52,-463.56 90,-462 80.83,-456.69 79.52,-463.56"/>
</g>
<!-- x4 -->
<g id="node26" class="node">
<title>x4</title>
<path fill="none" stroke="black" d="M102,-279C102,-279 153,-279 153,-279 159,-279 165,-285 165,-291 165,-291 165,-303 165,-303 165,-309 159,-315 153,-315 153,-315 102,-315 102,-315 96,-315 90,-309 90,-303 90,-303 90,-291 90,-291 90,-285 96,-279 102,-279"/>
<text text-anchor="middle" x="127.5" y="-293.3" font-family="Times,serif" font-size="14.00">7:4 &#45; 3:0</text>
</g>
<!-- n1&#45;&gt;x4 -->
<g id="edge15" class="edge">
<title>n1:e&#45;&gt;x4:w</title>
<path fill="none" stroke="black" stroke-width="3" d="M54,-352C78.88,-352 66.31,-312.12 80.07,-300.28"/>
<polygon fill="black" stroke="black" stroke-width="3" points="81.6,-303.46 90,-297 79.41,-296.81 81.6,-303.46"/>
</g>
<!-- x6 -->
<g id="node29" class="node">
<title>x6</title>
<path fill="none" stroke="black" d="M102,-169C102,-169 153,-169 153,-169 159,-169 165,-175 165,-181 165,-181 165,-193 165,-193 165,-199 159,-205 153,-205 153,-205 102,-205 102,-205 96,-205 90,-199 90,-193 90,-193 90,-181 90,-181 90,-175 96,-169 102,-169"/>
<text text-anchor="middle" x="127.5" y="-183.3" font-family="Times,serif" font-size="14.00">7:4 &#45; 3:0</text>
</g>
<!-- n1&#45;&gt;x6 -->
<g id="edge16" class="edge">
<title>n1:e&#45;&gt;x6:w</title>
<path fill="none" stroke="black" stroke-width="3" d="M54,-352C125.25,-352 26.04,-203.33 79.98,-188.23"/>
<polygon fill="black" stroke="black" stroke-width="3" points="80.5,-191.7 90,-187 79.65,-184.75 80.5,-191.7"/>
</g>
<!-- n2 -->
<g id="node2" class="node">
<title>n2</title>
<polygon fill="none" stroke="black" points="54,-179.54 54,-194.46 38.18,-205 15.82,-205 0,-194.46 0,-179.54 15.82,-169 38.18,-169 54,-179.54"/>
<text text-anchor="middle" x="27" y="-183.3" font-family="Times,serif" font-size="14.00">b</text>
</g>
<!-- x1 -->
<g id="node21" class="node">
<title>x1</title>
<path fill="none" stroke="black" d="M102,-224C102,-224 153,-224 153,-224 159,-224 165,-230 165,-236 165,-236 165,-248 165,-248 165,-254 159,-260 153,-260 153,-260 102,-260 102,-260 96,-260 90,-254 90,-248 90,-248 90,-236 90,-236 90,-230 96,-224 102,-224"/>
<text text-anchor="middle" x="127.5" y="-238.3" font-family="Times,serif" font-size="14.00">3:0 &#45; 3:0</text>
</g>
<!-- n2&#45;&gt;x1 -->
<g id="edge34" class="edge">
<title>n2:e&#45;&gt;x1:w</title>
<path fill="none" stroke="black" stroke-width="3" d="M54,-187C78.88,-187 66.31,-226.88 80.07,-238.72"/>
<polygon fill="black" stroke="black" stroke-width="3" points="79.41,-242.19 90,-242 81.6,-235.54 79.41,-242.19"/>
</g>
<!-- x3 -->
<g id="node24" class="node">
<title>x3</title>
<path fill="none" stroke="black" d="M102,-334C102,-334 153,-334 153,-334 159,-334 165,-340 165,-346 165,-346 165,-358 165,-358 165,-364 159,-370 153,-370 153,-370 102,-370 102,-370 96,-370 90,-364 90,-358 90,-358 90,-346 90,-346 90,-340 96,-334 102,-334"/>
<text text-anchor="middle" x="127.5" y="-348.3" font-family="Times,serif" font-size="14.00">7:4 &#45; 3:0</text>
</g>
<!-- n2&#45;&gt;x3 -->
<g id="edge35" class="edge">
<title>n2:e&#45;&gt;x3:w</title>
<path fill="none" stroke="black" stroke-width="3" d="M54,-187C125.25,-187 26.04,-335.67 79.98,-350.77"/>
<polygon fill="black" stroke="black" stroke-width="3" points="79.65,-354.25 90,-352 80.5,-347.3 79.65,-354.25"/>
</g>
<!-- x5 -->
<g id="node27" class="node">
<title>x5</title>
<path fill="none" stroke="black" d="M102,-114C102,-114 153,-114 153,-114 159,-114 165,-120 165,-126 165,-126 165,-138 165,-138 165,-144 159,-150 153,-150 153,-150 102,-150 102,-150 96,-150 90,-144 90,-138 90,-138 90,-126 90,-126 90,-120 96,-114 102,-114"/>
<text text-anchor="middle" x="127.5" y="-128.3" font-family="Times,serif" font-size="14.00">3:0 &#45; 3:0</text>
</g>
<!-- n2&#45;&gt;x5 -->
<g id="edge36" class="edge">
<title>n2:e&#45;&gt;x5:w</title>
<path fill="none" stroke="black" stroke-width="3" d="M54,-187C78.88,-187 66.31,-147.12 80.07,-135.28"/>
<polygon fill="black" stroke="black" stroke-width="3" points="81.6,-138.46 90,-132 79.41,-131.81 81.6,-138.46"/>
</g>
<!-- x7 -->
<g id="node30" class="node">
<title>x7</title>
<path fill="none" stroke="black" d="M102,-59C102,-59 153,-59 153,-59 159,-59 165,-65 165,-71 165,-71 165,-83 165,-83 165,-89 159,-95 153,-95 153,-95 102,-95 102,-95 96,-95 90,-89 90,-83 90,-83 90,-71 90,-71 90,-65 96,-59 102,-59"/>
<text text-anchor="middle" x="127.5" y="-73.3" font-family="Times,serif" font-size="14.00">7:4 &#45; 3:0</text>
</g>
<!-- n2&#45;&gt;x7 -->
<g id="edge37" class="edge">
<title>n2:e&#45;&gt;x7:w</title>
<path fill="none" stroke="black" stroke-width="3" d="M54,-187C101.42,-187 48.29,-93.52 80,-78.91"/>
<polygon fill="black" stroke="black" stroke-width="3" points="80.83,-82.31 90,-77 79.52,-75.44 80.83,-82.31"/>
</g>
<!-- n3 -->
<g id="node3" class="node">
<title>n3</title>
<polygon fill="none" stroke="black" points="1001.17,-389 971.01,-371 1001.17,-353 1031.34,-371 1001.17,-389"/>
<text text-anchor="middle" x="1001.17" y="-367.3" font-family="Times,serif" font-size="14.00">c1</text>
</g>
<!-- c21 -->
<g id="node18" class="node">
<title>c21</title>
<polygon fill="none" stroke="black" points="1263.99,-295.5 1263.99,-364.5 1640.99,-364.5 1640.99,-295.5 1263.99,-295.5"/>
<text text-anchor="middle" x="1296.99" y="-349.3" font-family="Times,serif" font-size="14.00">A</text>
<polyline fill="none" stroke="black" points="1263.99,-341.5 1329.99,-341.5 "/>
<text text-anchor="middle" x="1296.99" y="-326.3" font-family="Times,serif" font-size="14.00">SLEEP</text>
<polyline fill="none" stroke="black" points="1263.99,-318.5 1329.99,-318.5 "/>
<text text-anchor="middle" x="1296.99" y="-303.3" font-family="Times,serif" font-size="14.00">X</text>
<polyline fill="none" stroke="black" points="1329.99,-295.5 1329.99,-364.5 "/>
<text text-anchor="middle" x="1474.99" y="-333.8" font-family="Times,serif" font-size="14.00">$183</text>
<text text-anchor="middle" x="1474.99" y="-318.8" font-family="Times,serif" font-size="14.00">sky130_fd_sc_hd__lpflow_inputiso1p_1</text>
<polyline fill="none" stroke="black" points="1619.99,-295.5 1619.99,-364.5 "/>
<text text-anchor="middle" x="1630.49" y="-326.3" font-family="Times,serif" font-size="14.00"> </text>
</g>
<!-- n3&#45;&gt;c21 -->
<g id="edge39" class="edge">
<title>n3:e&#45;&gt;c21:w</title>
<path fill="none" stroke="black" d="M1032.17,-371C1132.08,-371 1158.89,-354.18 1253.95,-353.06"/>
<polygon fill="black" stroke="black" points="1254.01,-356.56 1263.99,-353 1253.97,-349.56 1254.01,-356.56"/>
</g>
<!-- n4 -->
<g id="node4" class="node">
<title>n4</title>
<polygon fill="none" stroke="black" points="1170.08,-343 1139.91,-325 1170.08,-307 1200.24,-325 1170.08,-343"/>
<text text-anchor="middle" x="1170.08" y="-321.3" font-family="Times,serif" font-size="14.00">c2</text>
</g>
<!-- n4&#45;&gt;c21 -->
<g id="edge41" class="edge">
<title>n4:e&#45;&gt;c21:w</title>
<path fill="none" stroke="black" d="M1201.08,-325C1225.4,-325 1233.76,-328.76 1253.84,-329.76"/>
<polygon fill="black" stroke="black" points="1253.91,-333.26 1263.99,-330 1254.07,-326.26 1253.91,-333.26"/>
</g>
<!-- n5 -->
<g id="node5" class="node">
<title>n5</title>
<polygon fill="none" stroke="black" points="1170.08,-289 1126.68,-271 1170.08,-253 1213.48,-271 1170.08,-289"/>
<text text-anchor="middle" x="1170.08" y="-267.3" font-family="Times,serif" font-size="14.00">cnet</text>
</g>
<!-- n5&#45;&gt;c21 -->
<g id="edge42" class="edge">
<title>n5:e&#45;&gt;c21:w</title>
<path fill="none" stroke="black" d="M1215.08,-271C1238.06,-271 1237.8,-297.11 1253.88,-304.86"/>
<polygon fill="black" stroke="black" points="1253.48,-308.35 1263.99,-307 1254.93,-301.5 1253.48,-308.35"/>
</g>
<!-- x11 -->
<g id="node38" class="node">
<title>x11</title>
<path fill="none" stroke="black" d="M1426.99,-207.5C1426.99,-207.5 1477.99,-207.5 1477.99,-207.5 1483.99,-207.5 1489.99,-213.5 1489.99,-219.5 1489.99,-219.5 1489.99,-264.5 1489.99,-264.5 1489.99,-270.5 1483.99,-276.5 1477.99,-276.5 1477.99,-276.5 1426.99,-276.5 1426.99,-276.5 1420.99,-276.5 1414.99,-270.5 1414.99,-264.5 1414.99,-264.5 1414.99,-219.5 1414.99,-219.5 1414.99,-213.5 1420.99,-207.5 1426.99,-207.5"/>
<text text-anchor="middle" x="1452.49" y="-261.3" font-family="Times,serif" font-size="14.00">0 &#45;&gt; 7:5</text>
<polyline fill="none" stroke="black" points="1414.99,-253.5 1489.99,-253.5 "/>
<text text-anchor="middle" x="1452.49" y="-238.3" font-family="Times,serif" font-size="14.00">0:0 &#45; 4:4</text>
<polyline fill="none" stroke="black" points="1414.99,-230.5 1489.99,-230.5 "/>
<text text-anchor="middle" x="1452.49" y="-215.3" font-family="Times,serif" font-size="14.00">7:4 &#45; 3:0</text>
</g>
<!-- n5&#45;&gt;x11 -->
<g id="edge43" class="edge">
<title>n5:e&#45;&gt;x11:w</title>
<path fill="none" stroke="black" d="M1215.08,-271C1300.72,-271 1322.69,-244.22 1403.35,-242.13"/>
<polygon fill="black" stroke="black" points="1403.53,-245.63 1413.49,-242 1403.44,-238.63 1403.53,-245.63"/>
</g>
<!-- n6 -->
<g id="node6" class="node">
<title>n6</title>
<polygon fill="none" stroke="black" points="486.18,-393 447.47,-375 486.18,-357 524.89,-375 486.18,-393"/>
<text text-anchor="middle" x="486.18" y="-371.3" font-family="Times,serif" font-size="14.00">ov1</text>
</g>
<!-- n7 -->
<g id="node7" class="node">
<title>n7</title>
<polygon fill="none" stroke="black" points="486.18,-501 447.47,-483 486.18,-465 524.89,-483 486.18,-501"/>
<text text-anchor="middle" x="486.18" y="-479.3" font-family="Times,serif" font-size="14.00">ov2</text>
</g>
<!-- n8 -->
<g id="node8" class="node">
<title>n8</title>
<polygon fill="none" stroke="black" points="486.18,-247 447.47,-229 486.18,-211 524.89,-229 486.18,-247"/>
<text text-anchor="middle" x="486.18" y="-225.3" font-family="Times,serif" font-size="14.00">ov3</text>
</g>
<!-- n9 -->
<g id="node9" class="node">
<title>n9</title>
<polygon fill="none" stroke="black" points="486.18,-139 447.47,-121 486.18,-103 524.89,-121 486.18,-139"/>
<text text-anchor="middle" x="486.18" y="-117.3" font-family="Times,serif" font-size="14.00">ov4</text>
</g>
<!-- n10 -->
<g id="node10" class="node">
<title>n10</title>
<polygon fill="none" stroke="black" points="1971.49,-111.54 1971.49,-126.46 1939.66,-137 1894.65,-137 1862.82,-126.46 1862.82,-111.54 1894.65,-101 1939.66,-101 1971.49,-111.54"/>
<text text-anchor="middle" x="1917.16" y="-115.3" font-family="Times,serif" font-size="14.00">overflow</text>
</g>
<!-- n11 -->
<g id="node11" class="node">
<title>n11</title>
<polygon fill="none" stroke="black" points="2077.85,-106.54 2077.85,-121.46 2057.14,-132 2027.86,-132 2007.15,-121.46 2007.15,-106.54 2027.86,-96 2057.14,-96 2077.85,-106.54"/>
<text text-anchor="middle" x="2042.5" y="-110.3" font-family="Times,serif" font-size="14.00">prod</text>
</g>
<!-- n12 -->
<g id="node12" class="node">
<title>n12</title>
<polygon fill="none" stroke="black" points="663.36,-271 597,-253 663.36,-235 729.72,-253 663.36,-271"/>
<text text-anchor="middle" x="663.36" y="-249.3" font-family="Times,serif" font-size="14.00">prodm0</text>
</g>
<!-- x9 -->
<g id="node35" class="node">
<title>x9</title>
<path fill="none" stroke="black" d="M806.77,-242C806.77,-242 857.77,-242 857.77,-242 863.77,-242 869.77,-248 869.77,-254 869.77,-254 869.77,-276 869.77,-276 869.77,-282 863.77,-288 857.77,-288 857.77,-288 806.77,-288 806.77,-288 800.77,-288 794.77,-282 794.77,-276 794.77,-276 794.77,-254 794.77,-254 794.77,-248 800.77,-242 806.77,-242"/>
<text text-anchor="middle" x="832.27" y="-272.8" font-family="Times,serif" font-size="14.00">0 &#45;&gt; 7:4</text>
<polyline fill="none" stroke="black" points="794.77,-265 869.77,-265 "/>
<text text-anchor="middle" x="832.27" y="-249.8" font-family="Times,serif" font-size="14.00">7:4 &#45; 3:0</text>
</g>
<!-- n12&#45;&gt;x9 -->
<g id="edge22" class="edge">
<title>n12:e&#45;&gt;x9:w</title>
<path fill="none" stroke="black" stroke-width="3" d="M730.36,-253C754.6,-253 763.08,-253 783.14,-253"/>
<polygon fill="black" stroke="black" stroke-width="3" points="783.27,-256.5 793.27,-253 783.27,-249.5 783.27,-256.5"/>
</g>
<!-- x14 -->
<g id="node40" class="node">
<title>x14</title>
<path fill="none" stroke="black" d="M1426.99,-142C1426.99,-142 1477.99,-142 1477.99,-142 1483.99,-142 1489.99,-148 1489.99,-154 1489.99,-154 1489.99,-176 1489.99,-176 1489.99,-182 1483.99,-188 1477.99,-188 1477.99,-188 1426.99,-188 1426.99,-188 1420.99,-188 1414.99,-182 1414.99,-176 1414.99,-176 1414.99,-154 1414.99,-154 1414.99,-148 1420.99,-142 1426.99,-142"/>
<text text-anchor="middle" x="1452.49" y="-172.8" font-family="Times,serif" font-size="14.00">3:0 &#45; 7:4</text>
<polyline fill="none" stroke="black" points="1414.99,-165 1489.99,-165 "/>
<text text-anchor="middle" x="1452.49" y="-149.8" font-family="Times,serif" font-size="14.00">3:0 &#45; 3:0</text>
</g>
<!-- n12&#45;&gt;x14 -->
<g id="edge21" class="edge">
<title>n12:e&#45;&gt;x14:w</title>
<path fill="none" stroke="black" stroke-width="3" d="M730.36,-253C769,-253 741.2,-197.86 774.36,-178 893.44,-106.67 1253.91,-150.81 1403.11,-152.92"/>
<polygon fill="black" stroke="black" stroke-width="3" points="1403.46,-156.43 1413.49,-153 1403.51,-149.43 1403.46,-156.43"/>
</g>
<!-- n13 -->
<g id="node13" class="node">
<title>n13</title>
<polygon fill="none" stroke="black" points="486.18,-447 419.82,-429 486.18,-411 552.54,-429 486.18,-447"/>
<text text-anchor="middle" x="486.18" y="-425.3" font-family="Times,serif" font-size="14.00">prodm1</text>
</g>
<!-- c29 -->
<g id="node32" class="node">
<title>c29</title>
<polygon fill="none" stroke="black" points="588.36,-309.5 588.36,-378.5 738.36,-378.5 738.36,-309.5 588.36,-309.5"/>
<text text-anchor="middle" x="607.36" y="-363.3" font-family="Times,serif" font-size="14.00">a</text>
<polyline fill="none" stroke="black" points="588.36,-355.5 626.36,-355.5 "/>
<text text-anchor="middle" x="607.36" y="-340.3" font-family="Times,serif" font-size="14.00">b</text>
<polyline fill="none" stroke="black" points="588.36,-332.5 626.36,-332.5 "/>
<text text-anchor="middle" x="607.36" y="-317.3" font-family="Times,serif" font-size="14.00">cin</text>
<polyline fill="none" stroke="black" points="626.36,-309.5 626.36,-378.5 "/>
<text text-anchor="middle" x="658.86" y="-347.8" font-family="Times,serif" font-size="14.00">stage1</text>
<text text-anchor="middle" x="658.86" y="-332.8" font-family="Times,serif" font-size="14.00">csa8</text>
<polyline fill="none" stroke="black" points="691.36,-309.5 691.36,-378.5 "/>
<text text-anchor="middle" x="714.86" y="-357.8" font-family="Times,serif" font-size="14.00">cout</text>
<polyline fill="none" stroke="black" points="691.36,-344.5 738.36,-344.5 "/>
<text text-anchor="middle" x="714.86" y="-323.3" font-family="Times,serif" font-size="14.00">sum</text>
</g>
<!-- n13&#45;&gt;c29 -->
<g id="edge24" class="edge">
<title>n13:e&#45;&gt;c29:w</title>
<path fill="none" stroke="black" stroke-width="3" d="M552.36,-429C579.99,-429 562.81,-382.38 578.54,-369.99"/>
<polygon fill="black" stroke="black" stroke-width="3" points="579.81,-373.26 588.36,-367 577.77,-366.56 579.81,-373.26"/>
</g>
<!-- n14 -->
<g id="node14" class="node">
<title>n14</title>
<polygon fill="none" stroke="black" points="486.18,-193 419.82,-175 486.18,-157 552.54,-175 486.18,-193"/>
<text text-anchor="middle" x="486.18" y="-171.3" font-family="Times,serif" font-size="14.00">prodm2</text>
</g>
<!-- n14&#45;&gt;c29 -->
<g id="edge26" class="edge">
<title>n14:e&#45;&gt;c29:w</title>
<path fill="none" stroke="black" stroke-width="3" d="M552.36,-175C625.26,-175 523,-327.27 578.11,-342.74"/>
<polygon fill="black" stroke="black" stroke-width="3" points="578.01,-346.25 588.36,-344 578.86,-339.3 578.01,-346.25"/>
</g>
<!-- n15 -->
<g id="node15" class="node">
<title>n15</title>
<polygon fill="none" stroke="black" points="1001.17,-98 934.81,-80 1001.17,-62 1067.53,-80 1001.17,-98"/>
<text text-anchor="middle" x="1001.17" y="-76.3" font-family="Times,serif" font-size="14.00">prodm3</text>
</g>
<!-- c31 -->
<g id="node37" class="node">
<title>c31</title>
<polygon fill="none" stroke="black" points="1676.99,-52.5 1676.99,-121.5 1826.99,-121.5 1826.99,-52.5 1676.99,-52.5"/>
<text text-anchor="middle" x="1695.99" y="-106.3" font-family="Times,serif" font-size="14.00">a</text>
<polyline fill="none" stroke="black" points="1676.99,-98.5 1714.99,-98.5 "/>
<text text-anchor="middle" x="1695.99" y="-83.3" font-family="Times,serif" font-size="14.00">b</text>
<polyline fill="none" stroke="black" points="1676.99,-75.5 1714.99,-75.5 "/>
<text text-anchor="middle" x="1695.99" y="-60.3" font-family="Times,serif" font-size="14.00">cin</text>
<polyline fill="none" stroke="black" points="1714.99,-52.5 1714.99,-121.5 "/>
<text text-anchor="middle" x="1747.49" y="-90.8" font-family="Times,serif" font-size="14.00">stage3</text>
<text text-anchor="middle" x="1747.49" y="-75.8" font-family="Times,serif" font-size="14.00">csa8</text>
<polyline fill="none" stroke="black" points="1779.99,-52.5 1779.99,-121.5 "/>
<text text-anchor="middle" x="1803.49" y="-100.8" font-family="Times,serif" font-size="14.00">cout</text>
<polyline fill="none" stroke="black" points="1779.99,-87.5 1826.99,-87.5 "/>
<text text-anchor="middle" x="1803.49" y="-66.3" font-family="Times,serif" font-size="14.00">sum</text>
</g>
<!-- n15&#45;&gt;c31 -->
<g id="edge28" class="edge">
<title>n15:e&#45;&gt;c31:w</title>
<path fill="none" stroke="black" stroke-width="3" d="M1068.17,-80C1335.34,-80 1404.64,-86.82 1666.78,-87"/>
<polygon fill="black" stroke="black" stroke-width="3" points="1666.99,-90.5 1676.99,-87 1666.99,-83.5 1666.99,-90.5"/>
</g>
<!-- n16 -->
<g id="node16" class="node">
<title>n16</title>
<polygon fill="none" stroke="black" points="832.27,-343 774.45,-325 832.27,-307 890.08,-325 832.27,-343"/>
<text text-anchor="middle" x="832.27" y="-321.3" font-family="Times,serif" font-size="14.00">sums1</text>
</g>
<!-- c30 -->
<g id="node34" class="node">
<title>c30</title>
<polygon fill="none" stroke="black" points="926.17,-207.5 926.17,-276.5 1076.17,-276.5 1076.17,-207.5 926.17,-207.5"/>
<text text-anchor="middle" x="945.17" y="-261.3" font-family="Times,serif" font-size="14.00">a</text>
<polyline fill="none" stroke="black" points="926.17,-253.5 964.17,-253.5 "/>
<text text-anchor="middle" x="945.17" y="-238.3" font-family="Times,serif" font-size="14.00">b</text>
<polyline fill="none" stroke="black" points="926.17,-230.5 964.17,-230.5 "/>
<text text-anchor="middle" x="945.17" y="-215.3" font-family="Times,serif" font-size="14.00">cin</text>
<polyline fill="none" stroke="black" points="964.17,-207.5 964.17,-276.5 "/>
<text text-anchor="middle" x="996.67" y="-245.8" font-family="Times,serif" font-size="14.00">stage2</text>
<text text-anchor="middle" x="996.67" y="-230.8" font-family="Times,serif" font-size="14.00">csa8</text>
<polyline fill="none" stroke="black" points="1029.17,-207.5 1029.17,-276.5 "/>
<text text-anchor="middle" x="1052.67" y="-255.8" font-family="Times,serif" font-size="14.00">cout</text>
<polyline fill="none" stroke="black" points="1029.17,-242.5 1076.17,-242.5 "/>
<text text-anchor="middle" x="1052.67" y="-221.3" font-family="Times,serif" font-size="14.00">sum</text>
</g>
<!-- n16&#45;&gt;c30 -->
<g id="edge30" class="edge">
<title>n16:e&#45;&gt;c30:w</title>
<path fill="none" stroke="black" stroke-width="3" d="M890.17,-325C926.3,-325 894.11,-258 916.36,-244.39"/>
<polygon fill="black" stroke="black" stroke-width="3" points="917.29,-247.77 926.17,-242 915.63,-240.97 917.29,-247.77"/>
</g>
<!-- n17 -->
<g id="node17" class="node">
<title>n17</title>
<polygon fill="none" stroke="black" points="1170.08,-235 1112.27,-217 1170.08,-199 1227.89,-217 1170.08,-235"/>
<text text-anchor="middle" x="1170.08" y="-213.3" font-family="Times,serif" font-size="14.00">sums2</text>
</g>
<!-- n17&#45;&gt;x11 -->
<g id="edge32" class="edge">
<title>n17:e&#45;&gt;x11:w</title>
<path fill="none" stroke="black" stroke-width="3" d="M1227.99,-217C1306.89,-217 1329.15,-218.83 1403.19,-218.99"/>
<polygon fill="black" stroke="black" stroke-width="3" points="1403.48,-222.49 1413.49,-219 1403.49,-215.49 1403.48,-222.49"/>
</g>
<!-- n17&#45;&gt;x14 -->
<g id="edge33" class="edge">
<title>n17:e&#45;&gt;x14:w</title>
<path fill="none" stroke="black" stroke-width="3" d="M1227.99,-217C1246.08,-217 1246.77,-203.56 1263.99,-198 1324.46,-178.45 1344.31,-177.09 1403.26,-177.01"/>
<polygon fill="black" stroke="black" stroke-width="3" points="1403.49,-180.51 1413.49,-177 1403.48,-173.51 1403.49,-180.51"/>
</g>
<!-- c22 -->
<g id="node19" class="node">
<title>c22</title>
<polygon fill="none" stroke="black" points="201,-302 201,-348 384,-348 384,-302 201,-302"/>
<text text-anchor="middle" x="214" y="-332.8" font-family="Times,serif" font-size="14.00">a</text>
<polyline fill="none" stroke="black" points="201,-325 227,-325 "/>
<text text-anchor="middle" x="214" y="-309.8" font-family="Times,serif" font-size="14.00">b</text>
<polyline fill="none" stroke="black" points="227,-302 227,-348 "/>
<text text-anchor="middle" x="267" y="-328.8" font-family="Times,serif" font-size="14.00">M0</text>
<text text-anchor="middle" x="267" y="-313.8" font-family="Times,serif" font-size="14.00">vedic4x4</text>
<polyline fill="none" stroke="black" points="307,-302 307,-348 "/>
<text text-anchor="middle" x="345.5" y="-332.8" font-family="Times,serif" font-size="14.00">overflow</text>
<polyline fill="none" stroke="black" points="307,-325 384,-325 "/>
<text text-anchor="middle" x="345.5" y="-309.8" font-family="Times,serif" font-size="14.00">prod</text>
</g>
<!-- c22&#45;&gt;n6 -->
<g id="edge44" class="edge">
<title>c22:e&#45;&gt;n6:w</title>
<path fill="none" stroke="black" d="M384,-337C412.59,-337 413.92,-366.62 436.12,-373.56"/>
<polygon fill="black" stroke="black" points="435.78,-377.04 446.18,-375 436.78,-370.11 435.78,-377.04"/>
</g>
<!-- c22&#45;&gt;n12 -->
<g id="edge20" class="edge">
<title>c22:e&#45;&gt;n12:w</title>
<path fill="none" stroke="black" stroke-width="3" d="M384,-313C402.09,-313 403.05,-300.32 420,-294 454.83,-281.01 541.48,-257.03 586.2,-253.45"/>
<polygon fill="black" stroke="black" stroke-width="3" points="586.52,-256.94 596.36,-253 586.21,-249.95 586.52,-256.94"/>
</g>
<!-- x0&#45;&gt;c22 -->
<g id="edge1" class="edge">
<title>x0:e&#45;&gt;c22:w</title>
<path fill="none" stroke="black" stroke-width="3" d="M176.47,-402.83C188.85,-390.35 177.12,-353.39 189.64,-341.06"/>
<polygon fill="none" stroke="black" stroke-width="3" points="176.28,-402.9 172.01,-408.71 165,-407 169.27,-401.19 176.28,-402.9"/>
<polygon fill="none" stroke="black" stroke-width="3" points="189.7,-341.04 194,-335.25 201,-337 196.7,-342.79 189.7,-341.04"/>
</g>
<!-- x1&#45;&gt;c22 -->
<g id="edge2" class="edge">
<title>x1:e&#45;&gt;c22:w</title>
<path fill="none" stroke="black" stroke-width="3" d="M176.58,-246.23C189.02,-258.89 176.94,-296.37 189.53,-308.88"/>
<polygon fill="none" stroke="black" stroke-width="3" points="176.27,-246.12 169.26,-247.82 165,-242 172.01,-240.3 176.27,-246.12"/>
<polygon fill="none" stroke="black" stroke-width="3" points="189.71,-308.94 196.7,-307.21 201,-313 194,-314.74 189.71,-308.94"/>
</g>
<!-- c23 -->
<g id="node22" class="node">
<title>c23</title>
<polygon fill="none" stroke="black" points="201,-422 201,-468 384,-468 384,-422 201,-422"/>
<text text-anchor="middle" x="214" y="-452.8" font-family="Times,serif" font-size="14.00">a</text>
<polyline fill="none" stroke="black" points="201,-445 227,-445 "/>
<text text-anchor="middle" x="214" y="-429.8" font-family="Times,serif" font-size="14.00">b</text>
<polyline fill="none" stroke="black" points="227,-422 227,-468 "/>
<text text-anchor="middle" x="267" y="-448.8" font-family="Times,serif" font-size="14.00">M1</text>
<text text-anchor="middle" x="267" y="-433.8" font-family="Times,serif" font-size="14.00">vedic4x4</text>
<polyline fill="none" stroke="black" points="307,-422 307,-468 "/>
<text text-anchor="middle" x="345.5" y="-452.8" font-family="Times,serif" font-size="14.00">overflow</text>
<polyline fill="none" stroke="black" points="307,-445 384,-445 "/>
<text text-anchor="middle" x="345.5" y="-429.8" font-family="Times,serif" font-size="14.00">prod</text>
</g>
<!-- c23&#45;&gt;n7 -->
<g id="edge45" class="edge">
<title>c23:e&#45;&gt;n7:w</title>
<path fill="none" stroke="black" d="M384,-457C410.21,-457 415.22,-476.91 436.14,-481.88"/>
<polygon fill="black" stroke="black" points="435.85,-485.37 446.18,-483 436.63,-478.42 435.85,-485.37"/>
</g>
<!-- c23&#45;&gt;n13 -->
<g id="edge23" class="edge">
<title>c23:e&#45;&gt;n13:w</title>
<path fill="none" stroke="black" stroke-width="3" d="M384,-433C396.07,-433 401.23,-430.75 409.85,-429.62"/>
<polygon fill="black" stroke="black" stroke-width="3" points="410.23,-433.11 420,-429 409.8,-426.12 410.23,-433.11"/>
</g>
<!-- x2&#45;&gt;c23 -->
<g id="edge3" class="edge">
<title>x2:e&#45;&gt;c23:w</title>
<path fill="none" stroke="black" stroke-width="3" d="M177,-460.89C181.25,-460.06 184.76,-458.93 189.02,-458.11"/>
<polygon fill="none" stroke="black" stroke-width="3" points="176.95,-460.89 171.34,-465.43 165,-462 170.61,-457.46 176.95,-460.89"/>
<polygon fill="none" stroke="black" stroke-width="3" points="189.05,-458.1 194.66,-453.57 201,-457 195.39,-461.53 189.05,-458.1"/>
</g>
<!-- x3&#45;&gt;c23 -->
<g id="edge4" class="edge">
<title>x3:e&#45;&gt;c23:w</title>
<path fill="none" stroke="black" stroke-width="3" d="M176.73,-355.91C191.84,-369.69 174.04,-415.9 189.52,-429.32"/>
<polygon fill="none" stroke="black" stroke-width="3" points="176.39,-355.79 169.43,-357.69 165,-352 171.96,-350.1 176.39,-355.79"/>
<polygon fill="none" stroke="black" stroke-width="3" points="189.57,-429.34 196.51,-427.36 201,-433 194.07,-434.98 189.57,-429.34"/>
</g>
<!-- c24 -->
<g id="node25" class="node">
<title>c24</title>
<polygon fill="none" stroke="black" points="201,-179 201,-225 384,-225 384,-179 201,-179"/>
<text text-anchor="middle" x="214" y="-209.8" font-family="Times,serif" font-size="14.00">a</text>
<polyline fill="none" stroke="black" points="201,-202 227,-202 "/>
<text text-anchor="middle" x="214" y="-186.8" font-family="Times,serif" font-size="14.00">b</text>
<polyline fill="none" stroke="black" points="227,-179 227,-225 "/>
<text text-anchor="middle" x="267" y="-205.8" font-family="Times,serif" font-size="14.00">M2</text>
<text text-anchor="middle" x="267" y="-190.8" font-family="Times,serif" font-size="14.00">vedic4x4</text>
<polyline fill="none" stroke="black" points="307,-179 307,-225 "/>
<text text-anchor="middle" x="345.5" y="-209.8" font-family="Times,serif" font-size="14.00">overflow</text>
<polyline fill="none" stroke="black" points="307,-202 384,-202 "/>
<text text-anchor="middle" x="345.5" y="-186.8" font-family="Times,serif" font-size="14.00">prod</text>
</g>
<!-- c24&#45;&gt;n8 -->
<g id="edge46" class="edge">
<title>c24:e&#45;&gt;n8:w</title>
<path fill="none" stroke="black" d="M384,-214C408.65,-214 415.93,-225.28 435.97,-228.28"/>
<polygon fill="black" stroke="black" points="435.96,-231.78 446.18,-229 436.45,-224.8 435.96,-231.78"/>
</g>
<!-- c24&#45;&gt;n14 -->
<g id="edge25" class="edge">
<title>c24:e&#45;&gt;n14:w</title>
<path fill="none" stroke="black" stroke-width="3" d="M384,-190C397.27,-190 401.16,-181.21 410.04,-177.09"/>
<polygon fill="black" stroke="black" stroke-width="3" points="410.93,-180.47 420,-175 409.49,-173.62 410.93,-180.47"/>
</g>
<!-- x4&#45;&gt;c24 -->
<g id="edge5" class="edge">
<title>x4:e&#45;&gt;c24:w</title>
<path fill="none" stroke="black" stroke-width="3" d="M176.94,-293C192.24,-278.88 173.64,-231.52 189.32,-217.77"/>
<polygon fill="none" stroke="black" stroke-width="3" points="176.38,-293.19 171.96,-298.88 165,-297 169.42,-291.3 176.38,-293.19"/>
<polygon fill="none" stroke="black" stroke-width="3" points="189.58,-217.69 194.06,-212.04 201,-214 196.52,-219.65 189.58,-217.69"/>
</g>
<!-- x5&#45;&gt;c24 -->
<g id="edge6" class="edge">
<title>x5:e&#45;&gt;c24:w</title>
<path fill="none" stroke="black" stroke-width="3" d="M176.33,-136.55C185.92,-147.34 180.09,-174.38 189.55,-185.31"/>
<polygon fill="none" stroke="black" stroke-width="3" points="176.13,-136.47 169.08,-137.95 165,-132 172.06,-130.53 176.13,-136.47"/>
<polygon fill="none" stroke="black" stroke-width="3" points="189.9,-185.45 196.96,-184.02 201,-190 193.93,-191.43 189.9,-185.45"/>
</g>
<!-- c25 -->
<g id="node28" class="node">
<title>c25</title>
<polygon fill="none" stroke="black" points="201,-75 201,-121 384,-121 384,-75 201,-75"/>
<text text-anchor="middle" x="214" y="-105.8" font-family="Times,serif" font-size="14.00">a</text>
<polyline fill="none" stroke="black" points="201,-98 227,-98 "/>
<text text-anchor="middle" x="214" y="-82.8" font-family="Times,serif" font-size="14.00">b</text>
<polyline fill="none" stroke="black" points="227,-75 227,-121 "/>
<text text-anchor="middle" x="267" y="-101.8" font-family="Times,serif" font-size="14.00">M3</text>
<text text-anchor="middle" x="267" y="-86.8" font-family="Times,serif" font-size="14.00">vedic4x4</text>
<polyline fill="none" stroke="black" points="307,-75 307,-121 "/>
<text text-anchor="middle" x="345.5" y="-105.8" font-family="Times,serif" font-size="14.00">overflow</text>
<polyline fill="none" stroke="black" points="307,-98 384,-98 "/>
<text text-anchor="middle" x="345.5" y="-82.8" font-family="Times,serif" font-size="14.00">prod</text>
</g>
<!-- c25&#45;&gt;n9 -->
<g id="edge47" class="edge">
<title>c25:e&#45;&gt;n9:w</title>
<path fill="none" stroke="black" d="M384,-110C408.34,-110 416.12,-118.27 436.06,-120.47"/>
<polygon fill="black" stroke="black" points="436.01,-123.97 446.18,-121 436.38,-116.98 436.01,-123.97"/>
</g>
<!-- c25&#45;&gt;n15 -->
<g id="edge27" class="edge">
<title>c25:e&#45;&gt;n15:w</title>
<path fill="none" stroke="black" stroke-width="3" d="M384,-86C625.07,-86 687.87,-80.17 923.89,-80"/>
<polygon fill="black" stroke="black" stroke-width="3" points="924.17,-83.5 934.17,-80 924.17,-76.5 924.17,-83.5"/>
</g>
<!-- x6&#45;&gt;c25 -->
<g id="edge7" class="edge">
<title>x6:e&#45;&gt;c25:w</title>
<path fill="none" stroke="black" stroke-width="3" d="M176.78,-182.86C190.62,-169.37 175.23,-126.77 189.59,-113.79"/>
<polygon fill="none" stroke="black" stroke-width="3" points="176.32,-183.02 171.99,-188.78 165,-187 169.33,-181.24 176.32,-183.02"/>
<polygon fill="none" stroke="black" stroke-width="3" points="189.61,-113.78 194.04,-108.1 201,-110 196.57,-115.69 189.61,-113.78"/>
</g>
<!-- x7&#45;&gt;c25 -->
<g id="edge8" class="edge">
<title>x7:e&#45;&gt;c25:w</title>
<path fill="none" stroke="black" stroke-width="3" d="M177.08,-79C181.3,-80.49 184.71,-82.52 188.93,-84.01"/>
<polygon fill="none" stroke="black" stroke-width="3" points="176.84,-78.96 170.27,-81.92 165,-77 171.57,-74.03 176.84,-78.96"/>
<polygon fill="none" stroke="black" stroke-width="3" points="189.16,-84.05 195.73,-81.08 201,-86 194.43,-88.97 189.16,-84.05"/>
</g>
<!-- v8 -->
<g id="node31" class="node">
<title>v8</title>
<ellipse fill="none" stroke="black" cx="486.18" cy="-321" rx="27" ry="18"/>
<text text-anchor="middle" x="486.18" y="-317.3" font-family="Times,serif" font-size="14.00">1&#39;0</text>
</g>
<!-- v8&#45;&gt;c29 -->
<g id="edge50" class="edge">
<title>v8:e&#45;&gt;c29:w</title>
<path fill="none" stroke="black" d="M514.18,-321C543.41,-321 553.21,-321 578.03,-321"/>
<polygon fill="black" stroke="black" points="578.36,-324.5 588.36,-321 578.36,-317.5 578.36,-324.5"/>
</g>
<!-- c29&#45;&gt;n3 -->
<g id="edge38" class="edge">
<title>c29:e&#45;&gt;n3:w</title>
<path fill="none" stroke="black" d="M738.36,-362C838.04,-362 865.28,-370.41 960.15,-370.97"/>
<polygon fill="black" stroke="black" points="960.16,-374.47 970.17,-371 960.18,-367.47 960.16,-374.47"/>
</g>
<!-- c29&#45;&gt;n16 -->
<g id="edge29" class="edge">
<title>c29:e&#45;&gt;n16:w</title>
<path fill="none" stroke="black" stroke-width="3" d="M738.36,-327C750.38,-327 755.6,-325.88 764.23,-325.31"/>
<polygon fill="black" stroke="black" stroke-width="3" points="764.47,-328.81 774.36,-325 764.26,-321.81 764.47,-328.81"/>
</g>
<!-- v10 -->
<g id="node33" class="node">
<title>v10</title>
<ellipse fill="none" stroke="black" cx="832.27" cy="-205" rx="27" ry="18"/>
<text text-anchor="middle" x="832.27" y="-201.3" font-family="Times,serif" font-size="14.00">1&#39;0</text>
</g>
<!-- v10&#45;&gt;c30 -->
<g id="edge48" class="edge">
<title>v10:e&#45;&gt;c30:w</title>
<path fill="none" stroke="black" d="M860.27,-205C886.47,-205 894.35,-215.72 915.97,-218.4"/>
<polygon fill="black" stroke="black" points="915.98,-221.91 926.17,-219 916.4,-214.92 915.98,-221.91"/>
</g>
<!-- c30&#45;&gt;n4 -->
<g id="edge40" class="edge">
<title>c30:e&#45;&gt;n4:w</title>
<path fill="none" stroke="black" d="M1076.17,-260C1112.61,-260 1101.65,-313.38 1129.2,-323.39"/>
<polygon fill="black" stroke="black" points="1128.65,-326.85 1139.08,-325 1129.77,-319.94 1128.65,-326.85"/>
</g>
<!-- c30&#45;&gt;n17 -->
<g id="edge31" class="edge">
<title>c30:e&#45;&gt;n17:w</title>
<path fill="none" stroke="black" stroke-width="3" d="M1076.17,-225C1088.59,-225 1093.45,-220.41 1102.21,-218.18"/>
<polygon fill="black" stroke="black" stroke-width="3" points="1102.65,-221.65 1112.17,-217 1101.83,-214.7 1102.65,-221.65"/>
</g>
<!-- x9&#45;&gt;c30 -->
<g id="edge9" class="edge">
<title>x9:e&#45;&gt;c30:w</title>
<path fill="none" stroke="black" stroke-width="3" d="M883.3,-265C895.01,-265 902.3,-265 913.97,-265"/>
<polygon fill="none" stroke="black" stroke-width="3" points="883.27,-265 877.27,-269 871.27,-265 877.27,-261 883.27,-265"/>
<polygon fill="none" stroke="black" stroke-width="3" points="914.17,-265 920.17,-261 926.17,-265 920.17,-269 914.17,-265"/>
</g>
<!-- v12 -->
<g id="node36" class="node">
<title>v12</title>
<ellipse fill="none" stroke="black" cx="1452.49" cy="-41" rx="27" ry="18"/>
<text text-anchor="middle" x="1452.49" y="-37.3" font-family="Times,serif" font-size="14.00">1&#39;0</text>
</g>
<!-- v12&#45;&gt;c31 -->
<g id="edge49" class="edge">
<title>v12:e&#45;&gt;c31:w</title>
<path fill="none" stroke="black" d="M1480.49,-41C1564.98,-41 1587.34,-62.24 1666.98,-63.9"/>
<polygon fill="black" stroke="black" points="1666.95,-67.4 1676.99,-64 1667.02,-60.4 1666.95,-67.4"/>
</g>
<!-- c31&#45;&gt;n10 -->
<g id="edge17" class="edge">
<title>c31:e&#45;&gt;n10:w</title>
<path fill="none" stroke="black" d="M1826.99,-105C1840.13,-105 1844.19,-113.21 1853.07,-117.05"/>
<polygon fill="black" stroke="black" points="1852.5,-120.51 1862.99,-119 1853.85,-113.64 1852.5,-120.51"/>
</g>
<!-- x13 -->
<g id="node39" class="node">
<title>x13</title>
<path fill="none" stroke="black" d="M1887.16,-46C1887.16,-46 1947.16,-46 1947.16,-46 1953.16,-46 1959.16,-52 1959.16,-58 1959.16,-58 1959.16,-70 1959.16,-70 1959.16,-76 1953.16,-82 1947.16,-82 1947.16,-82 1887.16,-82 1887.16,-82 1881.16,-82 1875.16,-76 1875.16,-70 1875.16,-70 1875.16,-58 1875.16,-58 1875.16,-52 1881.16,-46 1887.16,-46"/>
<text text-anchor="middle" x="1917.16" y="-60.3" font-family="Times,serif" font-size="14.00">7:0 &#45; 15:8</text>
</g>
<!-- c31&#45;&gt;x13 -->
<g id="edge11" class="edge">
<title>c31:e&#45;&gt;x13:w</title>
<path fill="none" stroke="black" stroke-width="3" d="M1839.23,-69.22C1847.72,-68.06 1853.53,-65.91 1862.05,-64.77"/>
<polygon fill="none" stroke="black" stroke-width="3" points="1838.96,-69.23 1833.23,-73.61 1826.99,-70 1832.72,-65.62 1838.96,-69.23"/>
<polygon fill="none" stroke="black" stroke-width="3" points="1862.18,-64.76 1867.91,-60.39 1874.16,-64 1868.42,-68.37 1862.18,-64.76"/>
</g>
<!-- x11&#45;&gt;c31 -->
<g id="edge10" class="edge">
<title>x11:e&#45;&gt;c31:w</title>
<path fill="none" stroke="black" stroke-width="3" d="M1503.66,-242.01C1564.43,-242.01 1592.65,-240.73 1640.99,-197 1668.26,-172.33 1643.08,-123.82 1664.99,-112.43"/>
<polygon fill="none" stroke="black" stroke-width="3" points="1503.49,-242.01 1497.48,-246 1491.49,-242 1497.49,-238 1503.49,-242.01"/>
<polygon fill="none" stroke="black" stroke-width="3" points="1665.23,-112.38 1670.31,-107.27 1676.99,-110 1671.9,-115.11 1665.23,-112.38"/>
</g>
<!-- x13&#45;&gt;n11 -->
<g id="edge18" class="edge">
<title>x13:e&#45;&gt;n11:w</title>
<path fill="none" stroke="black" stroke-width="3" d="M1960.16,-64C1986.65,-64 1979.69,-101.6 1997.3,-111.59"/>
<polygon fill="black" stroke="black" stroke-width="3" points="1996.78,-115.06 2007.32,-114 1998.42,-108.26 1996.78,-115.06"/>
</g>
<!-- x15 -->
<g id="node41" class="node">
<title>x15</title>
<path fill="none" stroke="black" d="M1726.49,-147C1726.49,-147 1777.49,-147 1777.49,-147 1783.49,-147 1789.49,-153 1789.49,-159 1789.49,-159 1789.49,-171 1789.49,-171 1789.49,-177 1783.49,-183 1777.49,-183 1777.49,-183 1726.49,-183 1726.49,-183 1720.49,-183 1714.49,-177 1714.49,-171 1714.49,-171 1714.49,-159 1714.49,-159 1714.49,-153 1720.49,-147 1726.49,-147"/>
<text text-anchor="middle" x="1751.99" y="-161.3" font-family="Times,serif" font-size="14.00">7:0 &#45; 7:0</text>
</g>
<!-- x14&#45;&gt;x15 -->
<g id="edge12" class="edge">
<title>x14:e&#45;&gt;x15:w</title>
<path fill="none" stroke="black" stroke-width="3" d="M1503.51,-165C1588.23,-165 1616.22,-165 1700.93,-165"/>
<polygon fill="none" stroke="black" stroke-width="3" points="1503.49,-165 1497.49,-169 1491.49,-165 1497.49,-161 1503.49,-165"/>
<polygon fill="none" stroke="black" stroke-width="3" points="1700.99,-165 1706.99,-161 1712.99,-165 1706.99,-169 1700.99,-165"/>
</g>
<!-- x15&#45;&gt;n11 -->
<g id="edge19" class="edge">
<title>x15:e&#45;&gt;n11:w</title>
<path fill="none" stroke="black" stroke-width="3" d="M1790.99,-165C1871.58,-165 1897.6,-178.55 1971.32,-146 1987.08,-139.04 1986.93,-122.56 1997.42,-116.39"/>
<polygon fill="black" stroke="black" stroke-width="3" points="1998.42,-119.75 2007.32,-114 1996.78,-112.94 1998.42,-119.75"/>
</g>
</g>
</svg>
