<?xml version="1.0" encoding="UTF-8" standalone="no"?>
<!DOCTYPE svg PUBLIC "-//W3C//DTD SVG 1.1//EN"
 "http://www.w3.org/Graphics/SVG/1.1/DTD/svg11.dtd">
<!-- Generated by graphviz version 2.43.0 (0)
 -->
<!-- Title: serial_adder Pages: 1 -->
<svg width="357pt" height="1200pt"
 viewBox="0.00 0.00 356.61 1200.00" xmlns="http://www.w3.org/2000/svg" xmlns:xlink="http://www.w3.org/1999/xlink">
<g id="graph0" class="graph" transform="scale(1 1) rotate(0) translate(4 1196)">
<title>serial_adder</title>
<polygon fill="white" stroke="transparent" points="-4,4 -4,-1196 352.61,-1196 352.61,4 -4,4"/>
<text text-anchor="middle" x="174.3" y="-7.8" font-family="Times,serif" font-size="14.00">serial_adder</text>
<!-- n12 -->
<g id="node1" class="node">
<title>n12</title>
<polygon fill="none" stroke="black" points="108.8,-933.54 108.8,-948.46 92.99,-959 70.62,-959 54.8,-948.46 54.8,-933.54 70.62,-923 92.99,-923 108.8,-933.54"/>
<text text-anchor="middle" x="81.8" y="-937.3" font-family="Times,serif" font-size="14.00">a</text>
</g>
<!-- c22 -->
<g id="node9" class="node">
<title>c22</title>
<polygon fill="none" stroke="black" points="218.11,-989 218.11,-1035 330.11,-1035 330.11,-989 218.11,-989"/>
<text text-anchor="middle" x="237.11" y="-1019.8" font-family="Times,serif" font-size="14.00">I</text>
<polyline fill="none" stroke="black" points="218.11,-1012 256.11,-1012 "/>
<text text-anchor="middle" x="237.11" y="-996.8" font-family="Times,serif" font-size="14.00">ZN</text>
<polyline fill="none" stroke="black" points="256.11,-989 256.11,-1035 "/>
<text text-anchor="middle" x="282.61" y="-1015.8" font-family="Times,serif" font-size="14.00">$344</text>
<text text-anchor="middle" x="282.61" y="-1000.8" font-family="Times,serif" font-size="14.00">INV</text>
<polyline fill="none" stroke="black" points="309.11,-989 309.11,-1035 "/>
<text text-anchor="middle" x="319.61" y="-1008.3" font-family="Times,serif" font-size="14.00"> </text>
</g>
<!-- n12&#45;&gt;c22 -->
<g id="edge7" class="edge">
<title>n12:e&#45;&gt;c22:w</title>
<path fill="none" stroke="black" d="M109.8,-941C166.45,-941 158.16,-1014.25 206.93,-1023.12"/>
<polygon fill="black" stroke="black" points="206.85,-1026.63 217.11,-1024 207.45,-1019.66 206.85,-1026.63"/>
</g>
<!-- c25 -->
<g id="node10" class="node">
<title>c25</title>
<polygon fill="none" stroke="black" points="209.11,-901.5 209.11,-970.5 339.11,-970.5 339.11,-901.5 209.11,-901.5"/>
<text text-anchor="middle" x="228.11" y="-955.3" font-family="Times,serif" font-size="14.00">A1</text>
<polyline fill="none" stroke="black" points="209.11,-947.5 247.11,-947.5 "/>
<text text-anchor="middle" x="228.11" y="-932.3" font-family="Times,serif" font-size="14.00">A2</text>
<polyline fill="none" stroke="black" points="209.11,-924.5 247.11,-924.5 "/>
<text text-anchor="middle" x="228.11" y="-909.3" font-family="Times,serif" font-size="14.00">ZN</text>
<polyline fill="none" stroke="black" points="247.11,-901.5 247.11,-970.5 "/>
<text text-anchor="middle" x="282.61" y="-939.8" font-family="Times,serif" font-size="14.00">$345</text>
<text text-anchor="middle" x="282.61" y="-924.8" font-family="Times,serif" font-size="14.00">NAND2</text>
<polyline fill="none" stroke="black" points="318.11,-901.5 318.11,-970.5 "/>
<text text-anchor="middle" x="328.61" y="-932.3" font-family="Times,serif" font-size="14.00"> </text>
</g>
<!-- n12&#45;&gt;c25 -->
<g id="edge8" class="edge">
<title>n12:e&#45;&gt;c25:w</title>
<path fill="none" stroke="black" d="M109.8,-941C149.96,-941 162.37,-936.79 197.97,-936.1"/>
<polygon fill="black" stroke="black" points="198.14,-939.59 208.11,-936 198.08,-932.59 198.14,-939.59"/>
</g>
<!-- n13 -->
<g id="node2" class="node">
<title>n13</title>
<polygon fill="none" stroke="black" points="108.8,-1166.54 108.8,-1181.46 92.99,-1192 70.62,-1192 54.8,-1181.46 54.8,-1166.54 70.62,-1156 92.99,-1156 108.8,-1166.54"/>
<text text-anchor="middle" x="81.8" y="-1170.3" font-family="Times,serif" font-size="14.00">b</text>
</g>
<!-- c21 -->
<g id="node8" class="node">
<title>c21</title>
<polygon fill="none" stroke="black" points="218.11,-1142 218.11,-1188 330.11,-1188 330.11,-1142 218.11,-1142"/>
<text text-anchor="middle" x="237.11" y="-1172.8" font-family="Times,serif" font-size="14.00">I</text>
<polyline fill="none" stroke="black" points="218.11,-1165 256.11,-1165 "/>
<text text-anchor="middle" x="237.11" y="-1149.8" font-family="Times,serif" font-size="14.00">ZN</text>
<polyline fill="none" stroke="black" points="256.11,-1142 256.11,-1188 "/>
<text text-anchor="middle" x="282.61" y="-1168.8" font-family="Times,serif" font-size="14.00">$343</text>
<text text-anchor="middle" x="282.61" y="-1153.8" font-family="Times,serif" font-size="14.00">INV</text>
<polyline fill="none" stroke="black" points="309.11,-1142 309.11,-1188 "/>
<text text-anchor="middle" x="319.61" y="-1161.3" font-family="Times,serif" font-size="14.00"> </text>
</g>
<!-- n13&#45;&gt;c21 -->
<g id="edge9" class="edge">
<title>n13:e&#45;&gt;c21:w</title>
<path fill="none" stroke="black" d="M109.8,-1174C153.97,-1174 167.44,-1176.57 207.05,-1176.95"/>
<polygon fill="black" stroke="black" points="207.09,-1180.45 217.11,-1177 207.13,-1173.45 207.09,-1180.45"/>
</g>
<!-- n13&#45;&gt;c25 -->
<g id="edge10" class="edge">
<title>n13:e&#45;&gt;c25:w</title>
<path fill="none" stroke="black" d="M109.8,-1174C137.63,-1174 147.3,-1164.54 163.61,-1142 210.48,-1077.24 132.06,-969.25 197.84,-959.68"/>
<polygon fill="black" stroke="black" points="198.36,-963.16 208.11,-959 197.9,-956.17 198.36,-963.16"/>
</g>
<!-- n14 -->
<g id="node3" class="node">
<title>n14</title>
<polygon fill="none" stroke="black" points="119.78,-357.54 119.78,-372.46 97.54,-383 66.07,-383 43.83,-372.46 43.83,-357.54 66.07,-347 97.54,-347 119.78,-357.54"/>
<text text-anchor="middle" x="81.8" y="-361.3" font-family="Times,serif" font-size="14.00">carry</text>
</g>
<!-- c34 -->
<g id="node18" class="node">
<title>c34</title>
<polygon fill="none" stroke="black" points="224.11,-354 224.11,-400 324.11,-400 324.11,-354 224.11,-354"/>
<text text-anchor="middle" x="237.11" y="-384.8" font-family="Times,serif" font-size="14.00">I</text>
<polyline fill="none" stroke="black" points="224.11,-377 250.11,-377 "/>
<text text-anchor="middle" x="237.11" y="-361.8" font-family="Times,serif" font-size="14.00">Z</text>
<polyline fill="none" stroke="black" points="250.11,-354 250.11,-400 "/>
<text text-anchor="middle" x="276.61" y="-380.8" font-family="Times,serif" font-size="14.00">$353</text>
<text text-anchor="middle" x="276.61" y="-365.8" font-family="Times,serif" font-size="14.00">BUF</text>
<polyline fill="none" stroke="black" points="303.11,-354 303.11,-400 "/>
<text text-anchor="middle" x="313.61" y="-373.3" font-family="Times,serif" font-size="14.00"> </text>
</g>
<!-- n14&#45;&gt;c34 -->
<g id="edge11" class="edge">
<title>n14:e&#45;&gt;c34:w</title>
<path fill="none" stroke="black" d="M120.8,-365C162.72,-365 175.66,-365 213.05,-365"/>
<polygon fill="black" stroke="black" points="213.11,-368.5 223.11,-365 213.11,-361.5 213.11,-368.5"/>
</g>
<!-- n15 -->
<g id="node4" class="node">
<title>n15</title>
<polygon fill="none" stroke="black" points="108.8,-195.54 108.8,-210.46 92.99,-221 70.62,-221 54.8,-210.46 54.8,-195.54 70.62,-185 92.99,-185 108.8,-195.54"/>
<text text-anchor="middle" x="81.8" y="-199.3" font-family="Times,serif" font-size="14.00">clk</text>
</g>
<!-- c39 -->
<g id="node20" class="node">
<title>c39</title>
<polygon fill="none" stroke="black" points="199.61,-62 199.61,-154 348.61,-154 348.61,-62 199.61,-62"/>
<text text-anchor="middle" x="223.11" y="-138.8" font-family="Times,serif" font-size="14.00">CLK</text>
<polyline fill="none" stroke="black" points="199.61,-131 246.61,-131 "/>
<text text-anchor="middle" x="223.11" y="-115.8" font-family="Times,serif" font-size="14.00">D</text>
<polyline fill="none" stroke="black" points="199.61,-108 246.61,-108 "/>
<text text-anchor="middle" x="223.11" y="-92.8" font-family="Times,serif" font-size="14.00">Q</text>
<polyline fill="none" stroke="black" points="199.61,-85 246.61,-85 "/>
<text text-anchor="middle" x="223.11" y="-69.8" font-family="Times,serif" font-size="14.00">RN</text>
<polyline fill="none" stroke="black" points="246.61,-62 246.61,-154 "/>
<text text-anchor="middle" x="287.11" y="-111.8" font-family="Times,serif" font-size="14.00">$318</text>
<text text-anchor="middle" x="287.11" y="-96.8" font-family="Times,serif" font-size="14.00">DFFRNQ</text>
<polyline fill="none" stroke="black" points="327.61,-62 327.61,-154 "/>
<text text-anchor="middle" x="338.11" y="-104.3" font-family="Times,serif" font-size="14.00"> </text>
</g>
<!-- n15&#45;&gt;c39 -->
<g id="edge12" class="edge">
<title>n15:e&#45;&gt;c39:w</title>
<path fill="none" stroke="black" d="M109.8,-203C136.56,-203 141.58,-191.18 163.61,-176 178.13,-165.99 178.49,-150.46 189.76,-144.99"/>
<polygon fill="black" stroke="black" points="190.5,-148.41 199.61,-143 189.11,-141.55 190.5,-148.41"/>
</g>
<!-- c40 -->
<g id="node22" class="node">
<title>c40</title>
<polygon fill="none" stroke="black" points="199.61,-243 199.61,-335 348.61,-335 348.61,-243 199.61,-243"/>
<text text-anchor="middle" x="223.11" y="-319.8" font-family="Times,serif" font-size="14.00">CLK</text>
<polyline fill="none" stroke="black" points="199.61,-312 246.61,-312 "/>
<text text-anchor="middle" x="223.11" y="-296.8" font-family="Times,serif" font-size="14.00">D</text>
<polyline fill="none" stroke="black" points="199.61,-289 246.61,-289 "/>
<text text-anchor="middle" x="223.11" y="-273.8" font-family="Times,serif" font-size="14.00">Q</text>
<polyline fill="none" stroke="black" points="199.61,-266 246.61,-266 "/>
<text text-anchor="middle" x="223.11" y="-250.8" font-family="Times,serif" font-size="14.00">RN</text>
<polyline fill="none" stroke="black" points="246.61,-243 246.61,-335 "/>
<text text-anchor="middle" x="287.11" y="-292.8" font-family="Times,serif" font-size="14.00">$319</text>
<text text-anchor="middle" x="287.11" y="-277.8" font-family="Times,serif" font-size="14.00">DFFRNQ</text>
<polyline fill="none" stroke="black" points="327.61,-243 327.61,-335 "/>
<text text-anchor="middle" x="338.11" y="-285.3" font-family="Times,serif" font-size="14.00"> </text>
</g>
<!-- n15&#45;&gt;c40 -->
<g id="edge13" class="edge">
<title>n15:e&#45;&gt;c40:w</title>
<path fill="none" stroke="black" d="M109.8,-203C136.56,-203 145.65,-210.17 163.61,-230 190.94,-260.19 161.28,-313.29 189.46,-322.59"/>
<polygon fill="black" stroke="black" points="189.22,-326.09 199.61,-324 190.19,-319.16 189.22,-326.09"/>
</g>
<!-- n16 -->
<g id="node5" class="node">
<title>n16</title>
<polygon fill="none" stroke="black" points="81.8,-437 32.87,-419 81.8,-401 130.74,-419 81.8,-437"/>
<text text-anchor="middle" x="81.8" y="-415.3" font-family="Times,serif" font-size="14.00">state</text>
</g>
<!-- c20 -->
<g id="node7" class="node">
<title>c20</title>
<polygon fill="none" stroke="black" points="218.11,-419 218.11,-465 330.11,-465 330.11,-419 218.11,-419"/>
<text text-anchor="middle" x="237.11" y="-449.8" font-family="Times,serif" font-size="14.00">I</text>
<polyline fill="none" stroke="black" points="218.11,-442 256.11,-442 "/>
<text text-anchor="middle" x="237.11" y="-426.8" font-family="Times,serif" font-size="14.00">ZN</text>
<polyline fill="none" stroke="black" points="256.11,-419 256.11,-465 "/>
<text text-anchor="middle" x="282.61" y="-445.8" font-family="Times,serif" font-size="14.00">$342</text>
<text text-anchor="middle" x="282.61" y="-430.8" font-family="Times,serif" font-size="14.00">INV</text>
<polyline fill="none" stroke="black" points="309.11,-419 309.11,-465 "/>
<text text-anchor="middle" x="319.61" y="-438.3" font-family="Times,serif" font-size="14.00"> </text>
</g>
<!-- n16&#45;&gt;c20 -->
<g id="edge14" class="edge">
<title>n16:e&#45;&gt;c20:w</title>
<path fill="none" stroke="black" d="M131.8,-419C169.1,-419 175.22,-447.99 206.92,-453.2"/>
<polygon fill="black" stroke="black" points="206.87,-456.71 217.11,-454 207.41,-449.73 206.87,-456.71"/>
</g>
<!-- c31 -->
<g id="node16" class="node">
<title>c31</title>
<polygon fill="none" stroke="black" points="209.11,-660.5 209.11,-729.5 339.11,-729.5 339.11,-660.5 209.11,-660.5"/>
<text text-anchor="middle" x="228.11" y="-714.3" font-family="Times,serif" font-size="14.00">A1</text>
<polyline fill="none" stroke="black" points="209.11,-706.5 247.11,-706.5 "/>
<text text-anchor="middle" x="228.11" y="-691.3" font-family="Times,serif" font-size="14.00">A2</text>
<polyline fill="none" stroke="black" points="209.11,-683.5 247.11,-683.5 "/>
<text text-anchor="middle" x="228.11" y="-668.3" font-family="Times,serif" font-size="14.00">ZN</text>
<polyline fill="none" stroke="black" points="247.11,-660.5 247.11,-729.5 "/>
<text text-anchor="middle" x="282.61" y="-698.8" font-family="Times,serif" font-size="14.00">$351</text>
<text text-anchor="middle" x="282.61" y="-683.8" font-family="Times,serif" font-size="14.00">NAND2</text>
<polyline fill="none" stroke="black" points="318.11,-660.5 318.11,-729.5 "/>
<text text-anchor="middle" x="328.61" y="-691.3" font-family="Times,serif" font-size="14.00"> </text>
</g>
<!-- n16&#45;&gt;c31 -->
<g id="edge15" class="edge">
<title>n16:e&#45;&gt;c31:w</title>
<path fill="none" stroke="black" d="M131.8,-419C150.35,-419 154.48,-429.86 163.61,-446 191.93,-496.09 152.26,-692.13 198.13,-715.68"/>
<polygon fill="black" stroke="black" points="197.58,-719.14 208.11,-718 199.16,-712.33 197.58,-719.14"/>
</g>
<!-- n16&#45;&gt;c34 -->
<g id="edge16" class="edge">
<title>n16:e&#45;&gt;c34:w</title>
<path fill="none" stroke="black" d="M131.8,-419C170.85,-419 179.11,-393.93 212.87,-389.63"/>
<polygon fill="black" stroke="black" points="213.34,-393.1 223.11,-389 212.91,-386.12 213.34,-393.1"/>
</g>
<!-- n16&#45;&gt;c40 -->
<g id="edge17" class="edge">
<title>n16:e&#45;&gt;c40:w</title>
<path fill="none" stroke="black" d="M131.8,-419C150.35,-419 153.37,-407.46 163.61,-392 191,-350.67 152.63,-287.3 189.28,-278.12"/>
<polygon fill="black" stroke="black" points="190.05,-281.56 199.61,-277 189.29,-274.6 190.05,-281.56"/>
</g>
<!-- n17 -->
<g id="node6" class="node">
<title>n17</title>
<polygon fill="none" stroke="black" points="114.93,-87.54 114.93,-102.46 95.53,-113 68.08,-113 48.68,-102.46 48.68,-87.54 68.08,-77 95.53,-77 114.93,-87.54"/>
<text text-anchor="middle" x="81.8" y="-91.3" font-family="Times,serif" font-size="14.00">sum</text>
</g>
<!-- n17&#45;&gt;c39 -->
<g id="edge18" class="edge">
<title>n17:e&#45;&gt;c39:w</title>
<path fill="none" stroke="black" d="M115.8,-95C149.42,-95 160.28,-95.81 189.44,-95.97"/>
<polygon fill="black" stroke="black" points="189.6,-99.47 199.61,-96 189.62,-92.47 189.6,-99.47"/>
</g>
<!-- c26 -->
<g id="node11" class="node">
<title>c26</title>
<polygon fill="none" stroke="black" points="209.11,-1054.5 209.11,-1123.5 339.11,-1123.5 339.11,-1054.5 209.11,-1054.5"/>
<text text-anchor="middle" x="228.11" y="-1108.3" font-family="Times,serif" font-size="14.00">A1</text>
<polyline fill="none" stroke="black" points="209.11,-1100.5 247.11,-1100.5 "/>
<text text-anchor="middle" x="228.11" y="-1085.3" font-family="Times,serif" font-size="14.00">A2</text>
<polyline fill="none" stroke="black" points="209.11,-1077.5 247.11,-1077.5 "/>
<text text-anchor="middle" x="228.11" y="-1062.3" font-family="Times,serif" font-size="14.00">ZN</text>
<polyline fill="none" stroke="black" points="247.11,-1054.5 247.11,-1123.5 "/>
<text text-anchor="middle" x="282.61" y="-1092.8" font-family="Times,serif" font-size="14.00">$346</text>
<text text-anchor="middle" x="282.61" y="-1077.8" font-family="Times,serif" font-size="14.00">NAND2</text>
<polyline fill="none" stroke="black" points="318.11,-1054.5 318.11,-1123.5 "/>
<text text-anchor="middle" x="328.61" y="-1085.3" font-family="Times,serif" font-size="14.00"> </text>
</g>
<!-- c27 -->
<g id="node12" class="node">
<title>c27</title>
<polygon fill="none" stroke="black" points="218.11,-836 218.11,-882 330.11,-882 330.11,-836 218.11,-836"/>
<text text-anchor="middle" x="237.11" y="-866.8" font-family="Times,serif" font-size="14.00">I</text>
<polyline fill="none" stroke="black" points="218.11,-859 256.11,-859 "/>
<text text-anchor="middle" x="237.11" y="-843.8" font-family="Times,serif" font-size="14.00">ZN</text>
<polyline fill="none" stroke="black" points="256.11,-836 256.11,-882 "/>
<text text-anchor="middle" x="282.61" y="-862.8" font-family="Times,serif" font-size="14.00">$347</text>
<text text-anchor="middle" x="282.61" y="-847.8" font-family="Times,serif" font-size="14.00">INV</text>
<polyline fill="none" stroke="black" points="309.11,-836 309.11,-882 "/>
<text text-anchor="middle" x="319.61" y="-855.3" font-family="Times,serif" font-size="14.00"> </text>
</g>
<!-- c28 -->
<g id="node13" class="node">
<title>c28</title>
<polygon fill="none" stroke="black" points="209.11,-748.5 209.11,-817.5 339.11,-817.5 339.11,-748.5 209.11,-748.5"/>
<text text-anchor="middle" x="228.11" y="-802.3" font-family="Times,serif" font-size="14.00">A1</text>
<polyline fill="none" stroke="black" points="209.11,-794.5 247.11,-794.5 "/>
<text text-anchor="middle" x="228.11" y="-779.3" font-family="Times,serif" font-size="14.00">A2</text>
<polyline fill="none" stroke="black" points="209.11,-771.5 247.11,-771.5 "/>
<text text-anchor="middle" x="228.11" y="-756.3" font-family="Times,serif" font-size="14.00">ZN</text>
<polyline fill="none" stroke="black" points="247.11,-748.5 247.11,-817.5 "/>
<text text-anchor="middle" x="282.61" y="-786.8" font-family="Times,serif" font-size="14.00">$348</text>
<text text-anchor="middle" x="282.61" y="-771.8" font-family="Times,serif" font-size="14.00">NAND2</text>
<polyline fill="none" stroke="black" points="318.11,-748.5 318.11,-817.5 "/>
<text text-anchor="middle" x="328.61" y="-779.3" font-family="Times,serif" font-size="14.00"> </text>
</g>
<!-- c29 -->
<g id="node14" class="node">
<title>c29</title>
<polygon fill="none" stroke="black" points="209.11,-572.5 209.11,-641.5 339.11,-641.5 339.11,-572.5 209.11,-572.5"/>
<text text-anchor="middle" x="228.11" y="-626.3" font-family="Times,serif" font-size="14.00">A1</text>
<polyline fill="none" stroke="black" points="209.11,-618.5 247.11,-618.5 "/>
<text text-anchor="middle" x="228.11" y="-603.3" font-family="Times,serif" font-size="14.00">A2</text>
<polyline fill="none" stroke="black" points="209.11,-595.5 247.11,-595.5 "/>
<text text-anchor="middle" x="228.11" y="-580.3" font-family="Times,serif" font-size="14.00">ZN</text>
<polyline fill="none" stroke="black" points="247.11,-572.5 247.11,-641.5 "/>
<text text-anchor="middle" x="282.61" y="-610.8" font-family="Times,serif" font-size="14.00">$349</text>
<text text-anchor="middle" x="282.61" y="-595.8" font-family="Times,serif" font-size="14.00">NAND2</text>
<polyline fill="none" stroke="black" points="318.11,-572.5 318.11,-641.5 "/>
<text text-anchor="middle" x="328.61" y="-603.3" font-family="Times,serif" font-size="14.00"> </text>
</g>
<!-- c30 -->
<g id="node15" class="node">
<title>c30</title>
<polygon fill="none" stroke="black" points="218.11,-175 218.11,-221 330.11,-221 330.11,-175 218.11,-175"/>
<text text-anchor="middle" x="237.11" y="-205.8" font-family="Times,serif" font-size="14.00">I</text>
<polyline fill="none" stroke="black" points="218.11,-198 256.11,-198 "/>
<text text-anchor="middle" x="237.11" y="-182.8" font-family="Times,serif" font-size="14.00">ZN</text>
<polyline fill="none" stroke="black" points="256.11,-175 256.11,-221 "/>
<text text-anchor="middle" x="282.61" y="-201.8" font-family="Times,serif" font-size="14.00">$350</text>
<text text-anchor="middle" x="282.61" y="-186.8" font-family="Times,serif" font-size="14.00">INV</text>
<polyline fill="none" stroke="black" points="309.11,-175 309.11,-221 "/>
<text text-anchor="middle" x="319.61" y="-194.3" font-family="Times,serif" font-size="14.00"> </text>
</g>
<!-- c32 -->
<g id="node17" class="node">
<title>c32</title>
<polygon fill="none" stroke="black" points="209.11,-484.5 209.11,-553.5 339.11,-553.5 339.11,-484.5 209.11,-484.5"/>
<text text-anchor="middle" x="228.11" y="-538.3" font-family="Times,serif" font-size="14.00">A1</text>
<polyline fill="none" stroke="black" points="209.11,-530.5 247.11,-530.5 "/>
<text text-anchor="middle" x="228.11" y="-515.3" font-family="Times,serif" font-size="14.00">A2</text>
<polyline fill="none" stroke="black" points="209.11,-507.5 247.11,-507.5 "/>
<text text-anchor="middle" x="228.11" y="-492.3" font-family="Times,serif" font-size="14.00">ZN</text>
<polyline fill="none" stroke="black" points="247.11,-484.5 247.11,-553.5 "/>
<text text-anchor="middle" x="282.61" y="-522.8" font-family="Times,serif" font-size="14.00">$352</text>
<text text-anchor="middle" x="282.61" y="-507.8" font-family="Times,serif" font-size="14.00">NAND2</text>
<polyline fill="none" stroke="black" points="318.11,-484.5 318.11,-553.5 "/>
<text text-anchor="middle" x="328.61" y="-515.3" font-family="Times,serif" font-size="14.00"> </text>
</g>
<!-- v0 -->
<g id="node19" class="node">
<title>v0</title>
<ellipse fill="none" stroke="black" cx="81.8" cy="-41" rx="27" ry="18"/>
<text text-anchor="middle" x="81.8" y="-37.3" font-family="Times,serif" font-size="14.00">1&#39;1</text>
</g>
<!-- v0&#45;&gt;c39 -->
<g id="edge37" class="edge">
<title>v0:e&#45;&gt;c39:w</title>
<path fill="none" stroke="black" d="M109.8,-41C148.54,-41 156.09,-67.74 189.47,-72.33"/>
<polygon fill="black" stroke="black" points="189.4,-75.83 199.61,-73 189.86,-68.85 189.4,-75.83"/>
</g>
<!-- v1 -->
<g id="node21" class="node">
<title>v1</title>
<ellipse fill="none" stroke="black" cx="81.8" cy="-257" rx="27" ry="18"/>
<text text-anchor="middle" x="81.8" y="-253.3" font-family="Times,serif" font-size="14.00">1&#39;1</text>
</g>
<!-- v1&#45;&gt;c40 -->
<g id="edge38" class="edge">
<title>v1:e&#45;&gt;c40:w</title>
<path fill="none" stroke="black" d="M109.8,-257C146.15,-257 157.65,-254.51 189.53,-254.07"/>
<polygon fill="black" stroke="black" points="189.63,-257.57 199.61,-254 189.59,-250.57 189.63,-257.57"/>
</g>
<!-- n1 -->
<g id="node23" class="node">
<title>n1</title>
<polygon fill="none" stroke="black" points="81.8,-1047 0.19,-1029 81.8,-1011 163.42,-1029 81.8,-1047"/>
<text text-anchor="middle" x="81.8" y="-1025.3" font-family="Times,serif" font-size="14.00">$new_n10</text>
</g>
<!-- n1&#45;&gt;c22 -->
<g id="edge1" class="edge">
<title>n1:e&#45;&gt;c22:w</title>
<path fill="none" stroke="black" d="M163.61,-1029C186.85,-1029 189.68,-1007.58 207.19,-1001.56"/>
<polygon fill="black" stroke="black" points="207.77,-1005.01 217.11,-1000 206.69,-998.09 207.77,-1005.01"/>
</g>
<!-- n1&#45;&gt;c26 -->
<g id="edge2" class="edge">
<title>n1:e&#45;&gt;c26:w</title>
<path fill="none" stroke="black" d="M163.61,-1029C192.79,-1029 179.41,-1075.35 198.28,-1086.57"/>
<polygon fill="black" stroke="black" points="197.56,-1090 208.11,-1089 199.24,-1083.21 197.56,-1090"/>
</g>
<!-- n10 -->
<g id="node24" class="node">
<title>n10</title>
<polygon fill="none" stroke="black" points="81.8,-491 20.98,-473 81.8,-455 142.63,-473 81.8,-491"/>
<text text-anchor="middle" x="81.8" y="-469.3" font-family="Times,serif" font-size="14.00">$110.Y</text>
</g>
<!-- n10&#45;&gt;c32 -->
<g id="edge3" class="edge">
<title>n10:e&#45;&gt;c32:w</title>
<path fill="none" stroke="black" d="M143.8,-473C170.36,-473 176.44,-490.61 197.88,-495.01"/>
<polygon fill="black" stroke="black" points="197.82,-498.52 208.11,-496 198.49,-491.55 197.82,-498.52"/>
</g>
<!-- n10&#45;&gt;c40 -->
<g id="edge4" class="edge">
<title>n10:e&#45;&gt;c40:w</title>
<path fill="none" stroke="black" d="M143.8,-473C220.41,-473 128.67,-316.75 189.49,-302.1"/>
<polygon fill="black" stroke="black" points="190.05,-305.56 199.61,-301 189.29,-298.6 190.05,-305.56"/>
</g>
<!-- n11 -->
<g id="node25" class="node">
<title>n11</title>
<polygon fill="none" stroke="black" points="81.8,-167 29.52,-149 81.8,-131 134.09,-149 81.8,-167"/>
<text text-anchor="middle" x="81.8" y="-145.3" font-family="Times,serif" font-size="14.00">$95.Y</text>
</g>
<!-- n11&#45;&gt;c30 -->
<g id="edge5" class="edge">
<title>n11:e&#45;&gt;c30:w</title>
<path fill="none" stroke="black" d="M134.8,-149C171.15,-149 176.28,-179.39 206.77,-185.09"/>
<polygon fill="black" stroke="black" points="206.84,-188.61 217.11,-186 207.46,-181.63 206.84,-188.61"/>
</g>
<!-- n11&#45;&gt;c39 -->
<g id="edge6" class="edge">
<title>n11:e&#45;&gt;c39:w</title>
<path fill="none" stroke="black" d="M134.8,-149C162.66,-149 167.25,-126.4 189.65,-121.1"/>
<polygon fill="black" stroke="black" points="190.06,-124.58 199.61,-120 189.29,-117.62 190.06,-124.58"/>
</g>
<!-- n2 -->
<g id="node26" class="node">
<title>n2</title>
<polygon fill="none" stroke="black" points="81.8,-653 0.19,-635 81.8,-617 163.42,-635 81.8,-653"/>
<text text-anchor="middle" x="81.8" y="-631.3" font-family="Times,serif" font-size="14.00">$new_n11</text>
</g>
<!-- n2&#45;&gt;c25 -->
<g id="edge19" class="edge">
<title>n2:e&#45;&gt;c25:w</title>
<path fill="none" stroke="black" d="M163.61,-635C222.39,-635 154.78,-880.36 198.26,-910.07"/>
<polygon fill="black" stroke="black" points="197.53,-913.5 208.11,-913 199.52,-906.79 197.53,-913.5"/>
</g>
<!-- n2&#45;&gt;c29 -->
<g id="edge20" class="edge">
<title>n2:e&#45;&gt;c29:w</title>
<path fill="none" stroke="black" d="M163.61,-635C179.63,-635 185.79,-631.76 197.96,-630.5"/>
<polygon fill="black" stroke="black" points="198.29,-633.99 208.11,-630 197.95,-626.99 198.29,-633.99"/>
</g>
<!-- n2&#45;&gt;c32 -->
<g id="edge21" class="edge">
<title>n2:e&#45;&gt;c32:w</title>
<path fill="none" stroke="black" d="M163.61,-635C205.49,-635 169.7,-557.3 198.24,-543.94"/>
<polygon fill="black" stroke="black" points="198.97,-547.36 208.11,-542 197.62,-540.5 198.97,-547.36"/>
</g>
<!-- n3 -->
<g id="node27" class="node">
<title>n3</title>
<polygon fill="none" stroke="black" points="81.8,-889 0.19,-871 81.8,-853 163.42,-871 81.8,-889"/>
<text text-anchor="middle" x="81.8" y="-867.3" font-family="Times,serif" font-size="14.00">$new_n12</text>
</g>
<!-- n3&#45;&gt;c26 -->
<g id="edge22" class="edge">
<title>n3:e&#45;&gt;c26:w</title>
<path fill="none" stroke="black" d="M163.61,-871C248.69,-871 130.26,-1049.6 197.85,-1064.95"/>
<polygon fill="black" stroke="black" points="197.81,-1068.46 208.11,-1066 198.52,-1061.5 197.81,-1068.46"/>
</g>
<!-- n3&#45;&gt;c27 -->
<g id="edge23" class="edge">
<title>n3:e&#45;&gt;c27:w</title>
<path fill="none" stroke="black" d="M163.61,-871C183.49,-871 190.9,-871 206.69,-871"/>
<polygon fill="black" stroke="black" points="207.11,-874.5 217.11,-871 207.11,-867.5 207.11,-874.5"/>
</g>
<!-- n3&#45;&gt;c31 -->
<g id="edge24" class="edge">
<title>n3:e&#45;&gt;c31:w</title>
<path fill="none" stroke="black" d="M163.61,-871C240.51,-871 137.95,-711.11 198.03,-696.12"/>
<polygon fill="black" stroke="black" points="198.56,-699.59 208.11,-695 197.78,-692.63 198.56,-699.59"/>
</g>
<!-- n4 -->
<g id="node28" class="node">
<title>n4</title>
<polygon fill="none" stroke="black" points="81.8,-818 0.19,-800 81.8,-782 163.42,-800 81.8,-818"/>
<text text-anchor="middle" x="81.8" y="-796.3" font-family="Times,serif" font-size="14.00">$new_n13</text>
</g>
<!-- n4&#45;&gt;c27 -->
<g id="edge25" class="edge">
<title>n4:e&#45;&gt;c27:w</title>
<path fill="none" stroke="black" d="M163.61,-800C191.43,-800 187.23,-836.31 207.29,-845.1"/>
<polygon fill="black" stroke="black" points="206.63,-848.54 217.11,-847 207.96,-841.66 206.63,-848.54"/>
</g>
<!-- n4&#45;&gt;c28 -->
<g id="edge26" class="edge">
<title>n4:e&#45;&gt;c28:w</title>
<path fill="none" stroke="black" d="M163.61,-800C180.81,-800 185.46,-788.78 197.96,-784.57"/>
<polygon fill="black" stroke="black" points="198.76,-787.99 208.11,-783 197.69,-781.07 198.76,-787.99"/>
</g>
<!-- n5 -->
<g id="node29" class="node">
<title>n5</title>
<polygon fill="none" stroke="black" points="81.8,-744 0.19,-726 81.8,-708 163.42,-726 81.8,-744"/>
<text text-anchor="middle" x="81.8" y="-722.3" font-family="Times,serif" font-size="14.00">$new_n14</text>
</g>
<!-- n5&#45;&gt;c28 -->
<g id="edge27" class="edge">
<title>n5:e&#45;&gt;c28:w</title>
<path fill="none" stroke="black" d="M163.61,-726C184.42,-726 184.14,-749.76 198.03,-757.55"/>
<polygon fill="black" stroke="black" points="197.57,-761.04 208.11,-760 199.22,-754.24 197.57,-761.04"/>
</g>
<!-- n5&#45;&gt;c29 -->
<g id="edge28" class="edge">
<title>n5:e&#45;&gt;c29:w</title>
<path fill="none" stroke="black" d="M163.61,-726C216.11,-726 160.65,-623.15 197.96,-608.68"/>
<polygon fill="black" stroke="black" points="198.82,-612.09 208.11,-607 197.67,-605.18 198.82,-612.09"/>
</g>
<!-- n6 -->
<g id="node30" class="node">
<title>n6</title>
<polygon fill="none" stroke="black" points="81.8,-329 0.19,-311 81.8,-293 163.42,-311 81.8,-329"/>
<text text-anchor="middle" x="81.8" y="-307.3" font-family="Times,serif" font-size="14.00">$new_n15</text>
</g>
<!-- n6&#45;&gt;c29 -->
<g id="edge29" class="edge">
<title>n6:e&#45;&gt;c29:w</title>
<path fill="none" stroke="black" d="M163.61,-311C221.36,-311 155.63,-551.94 198.42,-581.12"/>
<polygon fill="black" stroke="black" points="197.53,-584.5 208.11,-584 199.52,-577.79 197.53,-584.5"/>
</g>
<!-- n6&#45;&gt;c30 -->
<g id="edge30" class="edge">
<title>n6:e&#45;&gt;c30:w</title>
<path fill="none" stroke="black" d="M163.61,-311C210.44,-311 173.22,-225.16 206.92,-211.75"/>
<polygon fill="black" stroke="black" points="207.85,-215.14 217.11,-210 206.66,-208.25 207.85,-215.14"/>
</g>
<!-- n7 -->
<g id="node31" class="node">
<title>n7</title>
<polygon fill="none" stroke="black" points="81.8,-599 0.19,-581 81.8,-563 163.42,-581 81.8,-599"/>
<text text-anchor="middle" x="81.8" y="-577.3" font-family="Times,serif" font-size="14.00">$new_n17</text>
</g>
<!-- n7&#45;&gt;c31 -->
<g id="edge31" class="edge">
<title>n7:e&#45;&gt;c31:w</title>
<path fill="none" stroke="black" d="M163.61,-581C204.59,-581 170.54,-656.38 198.04,-669.93"/>
<polygon fill="black" stroke="black" points="197.61,-673.41 208.11,-672 199.02,-666.56 197.61,-673.41"/>
</g>
<!-- n7&#45;&gt;c32 -->
<g id="edge32" class="edge">
<title>n7:e&#45;&gt;c32:w</title>
<path fill="none" stroke="black" d="M163.61,-581C193.55,-581 178.87,-532.68 198.36,-521.35"/>
<polygon fill="black" stroke="black" points="199.21,-524.75 208.11,-519 197.57,-517.95 199.21,-524.75"/>
</g>
<!-- n8 -->
<g id="node32" class="node">
<title>n8</title>
<polygon fill="none" stroke="black" points="81.8,-545 8.24,-527 81.8,-509 155.37,-527 81.8,-545"/>
<text text-anchor="middle" x="81.8" y="-523.3" font-family="Times,serif" font-size="14.00">$new_n8</text>
</g>
<!-- n8&#45;&gt;c20 -->
<g id="edge33" class="edge">
<title>n8:e&#45;&gt;c20:w</title>
<path fill="none" stroke="black" d="M156.8,-527C203.6,-527 172.23,-444.56 206.81,-431.68"/>
<polygon fill="black" stroke="black" points="207.81,-435.07 217.11,-430 206.68,-428.16 207.81,-435.07"/>
</g>
<!-- n8&#45;&gt;c28 -->
<g id="edge34" class="edge">
<title>n8:e&#45;&gt;c28:w</title>
<path fill="none" stroke="black" d="M156.8,-527C216.15,-527 153.36,-774.26 198.39,-803.24"/>
<polygon fill="black" stroke="black" points="197.53,-806.63 208.11,-806 199.45,-799.9 197.53,-806.63"/>
</g>
<!-- n9 -->
<g id="node33" class="node">
<title>n9</title>
<polygon fill="none" stroke="black" points="81.8,-1133 8.24,-1115 81.8,-1097 155.37,-1115 81.8,-1133"/>
<text text-anchor="middle" x="81.8" y="-1111.3" font-family="Times,serif" font-size="14.00">$new_n9</text>
</g>
<!-- n9&#45;&gt;c21 -->
<g id="edge35" class="edge">
<title>n9:e&#45;&gt;c21:w</title>
<path fill="none" stroke="black" d="M156.8,-1115C184.65,-1115 185.66,-1144.35 207.01,-1151.46"/>
<polygon fill="black" stroke="black" points="206.7,-1154.96 217.11,-1153 207.75,-1148.04 206.7,-1154.96"/>
</g>
<!-- n9&#45;&gt;c26 -->
<g id="edge36" class="edge">
<title>n9:e&#45;&gt;c26:w</title>
<path fill="none" stroke="black" d="M156.8,-1115C175.9,-1115 182.96,-1112.9 198.11,-1112.22"/>
<polygon fill="black" stroke="black" points="198.19,-1115.71 208.11,-1112 198.04,-1108.72 198.19,-1115.71"/>
</g>
</g>
</svg>
